<?xml version="1.0" standalone="no"?>
<!DOCTYPE svg PUBLIC "-//W3C//DTD SVG 20010904//EN"
 "http://www.w3.org/TR/2001/REC-SVG-20010904/DTD/svg10.dtd">
<svg version="1.0" xmlns="http://www.w3.org/2000/svg"
 width="780.000000pt" height="780.000000pt" viewBox="0 0 780.000000 780.000000"
 preserveAspectRatio="xMidYMid meet">
<metadata>
Created by potrace 1.11, written by Peter Selinger 2001-2013
</metadata>
<g transform="translate(0.000000,780.000000) scale(0.100000,-0.100000)"
fill="#000000" stroke="none">
<path d="M5824 7652 c-10 -9 -37 -29 -59 -44 -22 -15 -52 -39 -67 -53 -15 -14
-30 -25 -33 -25 -4 0 -158 -119 -225 -173 -9 -7 -42 -33 -75 -57 -33 -25 -62
-47 -65 -50 -3 -3 -21 -17 -40 -30 -19 -13 -37 -27 -40 -31 -3 -3 -36 -30 -75
-60 -38 -29 -71 -56 -73 -61 -2 -4 -8 -8 -13 -8 -9 0 -22 -10 -82 -62 -18 -15
-35 -28 -39 -28 -4 0 -13 -6 -20 -13 -7 -7 -38 -31 -68 -54 -30 -23 -65 -52
-77 -63 -12 -11 -27 -20 -32 -20 -5 0 -11 -3 -13 -8 -1 -4 -91 -75 -198 -157
-107 -82 -202 -155 -210 -162 -8 -7 -100 -78 -205 -159 -104 -80 -201 -155
-214 -167 -13 -12 -21 -17 -17 -10 4 7 -2 16 -13 22 -11 6 -25 17 -33 24 -7 7
-31 26 -53 42 -22 17 -46 35 -55 42 -33 27 -320 250 -350 273 -36 27 -257 198
-305 235 -16 13 -48 38 -70 55 -22 16 -53 40 -69 53 -16 12 -34 27 -40 33 -6
5 -27 21 -47 35 -20 13 -53 38 -75 56 -21 18 -77 62 -124 97 -47 36 -89 69
-95 74 -5 4 -62 48 -125 97 -63 49 -120 94 -126 100 -6 5 -22 17 -34 25 -12 8
-36 27 -54 42 -17 15 -39 30 -48 34 -10 3 -18 9 -18 13 0 5 -17 20 -37 33 -21
14 -49 35 -63 46 -69 58 -90 72 -109 72 -12 0 -21 -3 -21 -7 0 -5 -23 -23 -50
-42 -28 -19 -50 -38 -50 -43 0 -4 -6 -8 -14 -8 -8 0 -16 -4 -18 -8 -1 -4 -32
-30 -68 -57 -36 -27 -72 -55 -80 -62 -28 -23 -177 -138 -205 -158 -15 -11 -32
-24 -39 -30 -12 -11 -39 -32 -186 -145 -54 -41 -193 -149 -309 -240 -117 -91
-224 -173 -238 -182 -14 -9 -29 -20 -32 -25 -3 -4 -24 -21 -46 -38 -22 -16
-42 -31 -45 -35 -3 -3 -23 -18 -45 -35 -22 -16 -42 -31 -45 -34 -3 -4 -41 -33
-84 -66 -43 -33 -84 -64 -90 -70 -6 -5 -38 -30 -71 -54 -33 -25 -62 -47 -65
-51 -3 -3 -26 -21 -53 -40 -26 -18 -47 -37 -47 -41 0 -3 -9 -9 -20 -12 -20 -5
-20 -12 -20 -1521 0 -834 4 -1516 8 -1516 4 0 27 -18 52 -40 24 -22 50 -40 56
-40 7 0 14 -4 16 -9 2 -8 110 -94 238 -191 18 -14 59 -45 90 -70 32 -25 101
-78 153 -118 83 -64 106 -82 152 -120 6 -5 29 -22 51 -38 22 -16 46 -35 54
-42 17 -14 73 -57 114 -87 15 -11 37 -28 49 -39 12 -10 47 -37 77 -60 30 -22
57 -43 60 -46 3 -3 32 -25 65 -50 33 -25 62 -47 65 -50 3 -3 43 -35 90 -70 47
-36 90 -69 96 -75 6 -5 23 -19 39 -30 50 -36 140 -109 147 -120 5 -6 8 -6 8 0
0 7 3 7 8 0 13 -19 110 -95 120 -95 6 0 12 -4 14 -9 4 -11 105 -91 115 -91 5
0 14 -9 21 -20 7 -11 19 -20 26 -20 8 0 16 -4 18 -9 2 -5 80 -68 173 -140 94
-72 180 -139 192 -148 11 -10 34 -28 50 -40 15 -12 38 -30 50 -40 11 -10 31
-25 44 -33 12 -8 31 -23 41 -33 10 -9 20 -17 23 -17 2 0 42 -30 87 -66 46 -36
90 -71 98 -77 133 -101 189 -145 210 -164 14 -13 28 -23 32 -23 3 0 13 -6 20
-13 7 -7 33 -28 58 -47 50 -39 45 -35 152 -119 43 -34 80 -61 83 -61 3 0 13
-8 23 -18 10 -9 34 -29 53 -43 19 -15 111 -86 204 -158 94 -73 186 -145 205
-161 19 -16 41 -30 48 -30 7 0 10 -4 7 -10 -3 -5 0 -10 9 -10 8 0 17 -6 19
-12 4 -9 8 -10 14 -3 4 6 32 28 62 49 30 21 59 42 65 47 102 83 177 139 186
139 5 0 10 3 10 8 0 4 42 38 93 77 50 38 94 72 97 75 3 4 30 25 61 47 31 23
62 47 70 55 8 7 41 33 74 58 33 24 66 49 75 56 8 7 41 33 72 58 32 25 62 46
67 46 5 0 11 3 13 8 3 8 49 46 92 77 16 11 33 25 40 30 6 6 58 46 116 90 126
96 138 106 160 125 9 8 32 26 51 40 19 13 39 28 44 32 6 5 57 45 115 89 58 45
119 91 135 105 17 13 53 40 80 61 28 20 52 40 55 43 3 4 31 26 62 49 32 24 55
47 52 52 -3 5 1 7 8 4 7 -3 24 5 38 18 14 12 63 51 110 86 47 36 87 68 88 73
2 4 10 8 18 8 8 0 14 4 14 9 0 5 16 19 35 31 20 12 41 27 48 34 6 6 73 58 147
116 74 57 141 110 148 119 6 8 12 11 12 5 0 -5 4 -4 8 1 4 6 27 26 52 45 25
19 47 37 50 40 3 3 23 19 45 35 22 16 47 35 55 42 39 32 302 234 355 273 33
25 67 52 75 60 8 8 60 48 115 89 55 41 105 79 110 85 6 6 35 30 66 53 31 23
62 47 70 55 8 7 22 18 31 23 9 6 68 51 132 100 l116 90 0 225 c1 962 -1 2768
-3 2782 -2 10 -28 36 -58 58 -30 22 -64 48 -75 58 -12 10 -66 52 -120 93 -54
41 -110 84 -124 97 -14 13 -37 31 -52 40 -16 9 -28 20 -28 24 0 4 -4 8 -10 8
-5 0 -18 8 -28 18 -10 9 -72 58 -137 107 -65 50 -126 97 -135 105 -10 8 -28
22 -40 30 -12 8 -28 20 -34 25 -6 6 -51 42 -101 80 -49 38 -92 72 -95 75 -3 3
-41 33 -85 66 -44 32 -89 67 -100 76 -11 9 -108 84 -215 167 -107 82 -199 154
-205 158 -5 5 -59 46 -120 93 -60 46 -112 87 -115 90 -3 3 -19 16 -36 28 -29
20 -32 20 -50 4z"/>
</g>
</svg>
