<?xml version="1.0" encoding="utf-8"?>
<!-- Generator: Adobe Illustrator 24.3.0, SVG Export Plug-In . SVG Version: 6.00 Build 0)  -->
<svg version="1.1" id="Ebene_1" xmlns="http://www.w3.org/2000/svg" xmlns:xlink="http://www.w3.org/1999/xlink" x="0px" y="0px"
	 viewBox="0 0 40.3 40.3" style="enable-background:new 0 0 40.3 40.3;" xml:space="preserve">
<style type="text/css">
	.st0{fill:none;stroke:#FFFFFF;stroke-width:4;stroke-linecap:round;stroke-linejoin:round;stroke-miterlimit:10;}
	.st1{fill:#FFFFFF;}
	.st2{fill:#E71C84;}
	.st3{fill:none;stroke:#E71C84;stroke-width:4;stroke-linecap:round;stroke-linejoin:round;stroke-miterlimit:10;}
</style>
<g>
	<path class="st2" d="M34.8,37.6h-9.8c-0.8,0-1.5-0.7-1.5-1.5V25.6h-7v10.5c0,0.8-0.7,1.5-1.5,1.5H5.4c-0.8,0-1.5-0.7-1.5-1.5V16.9
		c0-0.4,0.2-0.8,0.5-1.1L19.2,3.1c0.6-0.5,1.4-0.5,2,0l14.7,12.7c0.3,0.3,0.5,0.7,0.5,1.1v19.2C36.3,36.9,35.7,37.6,34.8,37.6z
		 M26.6,34.6h6.8v-17L20.1,6.2L6.9,17.6v17h6.7V24.1c0-0.8,0.7-1.5,1.5-1.5h10c0.8,0,1.5,0.7,1.5,1.5V34.6z"/>
</g>
</svg>
