<svg height="15" viewBox="0 0 22 15" width="22" xmlns="http://www.w3.org/2000/svg" xmlns:xlink="http://www.w3.org/1999/xlink"><defs><path id="a" d="m0 0h22v15h-22z"/><mask id="b" maskUnits="userSpaceOnUse"><path d="m0 0h22v15h-22z"/><use fill="#fff" xlink:href="#a"/></mask></defs><use fill="none" xlink:href="#a"/><g fill="#fff" fill-rule="evenodd" mask="url(#b)"><path d="m2.19003296 15h17.61993408c1.19454956 0 2.19003296-.99658203 2.19003296-2.24267578v-10.56445313c0-1.19628906-.9954834-2.19287109-2.19003296-2.19287109h-17.61993408c-1.19454956 0-2.19003296.99658203-2.19003296 2.1928711v10.6142578c0 1.19628908.9954834 2.1928711 2.19003296 2.1928711zm-.19909668-12.80761719c0-.09960937.09954834-.19921875.19909668-.19921875h17.61990356c.09954834 0 .19909668.09960938.19909668.19921875v10.5649414c0 .09960938-.09954834.19921876-.19909668.19921876h-17.61990356c-.09954834 0-.19909668-.09960938-.19909668-.19921875v-10.5649414z"/><path d="m10.95022624 11.26245847c-.5475113 0-1.09502262-.19933555-1.54298642-.64784053l-8.46153846-8.17275747c-.39819005-.3986711-.39819005-.99667775 0-1.39534884.39819004-.3986711.99547511-.3986711 1.39366516 0l8.4117647 8.17275747c.09954751.09966778.19909502.09966778.29864254 0l8.61085972-8.22259136c.39819005-.3986711 1.04524887-.3488372 1.39366516.04983389.39819005.3986711.3484163 1.04651163-.04977375 1.39534884l-8.56108598 8.17275747c-.39819004.44850498-.94570135.64784053-1.49321267.64784053z"/></g></svg>