<?xml version="1.0" encoding="UTF-8"?>
<svg width="633px" height="394px" viewBox="0 0 633 394" version="1.1" xmlns="http://www.w3.org/2000/svg" xmlns:xlink="http://www.w3.org/1999/xlink">
    <!-- Generator: Sketch 59.1 (86144) - https://sketch.com -->
    <title>bluebird-logo</title>
    <desc>Created with Sketch.</desc>
    <g id="Page-1" stroke="none" stroke-width="1" fill="none" fill-rule="evenodd">
        <g id="bluebird-logo" fill="#FFFFFF" fill-rule="nonzero">
            <g id="icon_3_" transform="translate(169.000000, 0.000000)">
                <g id="Group">
                    <g opacity="0.7" transform="translate(0.000000, 153.404494)" id="Path">
                        <polygon points="0.691011236 61.5 35.794382 0 70.4831461 60.947191"></polygon>
                    </g>
                    <polygon id="Path" opacity="0.2" points="35.794382 153.404494 88.1730337 245.308989 98.5382022 171.923596"></polygon>
                    <polygon id="Path" points="123 0.691011236 88.1730337 245.308989 245.308989 214.904494"></polygon>
                </g>
            </g>
            <g id="typo" transform="translate(0.000000, 273.000000)">
                <g id="Group">
                    <path d="M86.3,78.7 C86.3,101.9 67.6,120.8 44.2,120.8 C35.7,120.8 27.9,118.4 21.5,113.9 L21.5,119.5 L0.7,119.5 L0.7,0.8 L21.5,0.8 L21.5,43.7 C27.9,39.2 35.9,36.8 44.2,36.8 C67.6,36.8 86.3,55.7 86.3,78.7 Z M64.9,78.7 C64.9,65.6 55.8,56.3 43.8,56.3 C31.5,56.3 22.7,65.6 22.7,78.7 C22.7,91.8 31.5,101.1 43.8,101.1 C55.9,101.3 64.9,91.7 64.9,78.7 Z" id="Shape"></path>
                    <polygon id="Path" points="103.6 0.8 124.4 0.8 124.4 119.5 103.6 119.5"></polygon>
                    <path d="M221.7,38.1 L221.7,119.4 L200.9,119.4 L200.9,111.4 C195,117.3 187.3,120.7 179,120.7 C159,120.7 145.4,104.7 145.4,83.4 L145.4,38.1 L166.7,38.1 L166.7,83.2 C166.7,94.1 173.6,101.9 183.8,101.9 C193.7,101.9 200.9,94.2 200.9,83.2 L200.9,38.1 L221.7,38.1 L221.7,38.1 Z" id="Path"></path>
                    <path d="M322.3,92.8 C321,96.5 308.7,119.7 280.2,119.7 C263.9,119.7 247.4,109.3 241,92.8 C239.1,88 238.1,82.9 238.1,77.6 C238.1,54.4 256.8,35.5 280.2,35.5 C302.9,35.5 321.3,53.4 322.1,75.8 C322.1,76.6 322.4,77.1 322.1,77.9 L262.1,88.8 C265,95.5 271.7,100.5 280.2,100.5 C294.3,100.5 303.7,90.4 304.7,86.9 L322.3,92.8 Z M259.3,73.3 L298.5,66.4 C294.5,58.7 286.2,53.6 277.7,54.4 C269.2,54.9 261.7,62.1 259.8,70.9 L259.3,73.3 Z" id="Shape"></path>
                    <path d="M426,78.7 C426,101.9 407.3,120.8 383.9,120.8 C375.4,120.8 367.6,118.4 361.2,113.9 L361.2,119.5 L340.4,119.5 L340.4,0.8 L361.2,0.8 L361.2,43.7 C367.6,39.2 375.6,36.8 383.9,36.8 C407.3,36.8 426,55.7 426,78.7 Z M404.4,78.7 C404.4,65.6 395.3,56.3 383.3,56.3 C371,56.3 362.2,65.6 362.2,78.7 C362.2,91.8 371,101.1 383.3,101.1 C395.6,101.3 404.4,91.7 404.4,78.7 Z" id="Shape"></path>
                    <path d="M443.6,12 C443.6,5.9 448.9,0.8 455.1,0.8 C461.2,0.8 466.6,5.9 466.6,12 C466.6,18.4 461.3,23.5 455.1,23.5 C448.7,23.5 443.6,18.4 443.6,12 Z M444.7,38.1 L465.5,38.1 L465.5,119.4 L444.7,119.4 L444.7,38.1 Z" id="Shape"></path>
                    <path d="M541.7,38.9 L536.1,60.8 C532.4,57.9 528.4,56 525.7,56 C515.8,56 508.6,63.7 508.6,74.7 L508.6,119.5 L487.8,119.5 L487.8,38.2 L508.6,38.2 L508.6,46.5 C514.5,40.6 522.5,37.2 530.5,37.2 C534.5,36.8 538.3,37.6 541.7,38.9 Z" id="Path"></path>
                    <path d="M632.1,0.8 L632.1,119.5 L611.3,119.5 L611.3,114.2 C604.9,118.5 596.9,120.9 588.6,120.9 C565.4,120.9 546.5,102 546.5,78.8 C546.5,55.6 565.4,36.9 588.6,36.9 C596.9,36.9 604.6,39.3 611.3,43.6 L611.3,0.9 L632.1,0.8 L632.1,0.8 Z M610.5,78.7 C610.5,65.6 601.4,56.3 589.4,56.3 C577.1,56.3 568.3,65.6 568.3,78.7 C568.3,91.8 577.1,101.1 589.4,101.1 C601.5,101.3 610.5,91.7 610.5,78.7 Z" id="Shape"></path>
                </g>
            </g>
        </g>
    </g>
</svg>