<?xml version="1.0" encoding="utf-8"?>
<!-- Generator: Adobe Illustrator 24.3.0, SVG Export Plug-In . SVG Version: 6.00 Build 0)  -->
<svg version="1.1" id="Ebene_1" xmlns="http://www.w3.org/2000/svg" xmlns:xlink="http://www.w3.org/1999/xlink" x="0px" y="0px"
	 viewBox="0 0 48 48" style="enable-background:new 0 0 48 48;" xml:space="preserve">
<style type="text/css">
	.st0{fill:none;stroke:#FF0096;stroke-width:2;stroke-linecap:round;stroke-linejoin:round;stroke-miterlimit:10;}
</style>
<g>
	<path class="st0" d="M6.9,24.5c-4.7-4.7-4.7-12.3,0-17l0,0c4.7-4.7,12.3-4.7,17,0"/>
	<path class="st0" d="M30.4,14.1l11.2,11.2c1.1,1.1,1.1,3,0,4.1l-0.1,0.1c-1.1,1.1-3,1.1-4.1,0l-5-5l4.9,4.9c1.2,1.2,1.2,3.1,0,4.2
		l0,0c-1.2,1.2-3.1,1.2-4.2,0l-4.9-4.9l4.9,4.9c1.2,1.2,1.2,3.1,0,4.2l0,0c-1.2,1.2-3,1.2-4.2,0l-5-5h0l4.9,4.9
		c1.2,1.2,1.2,3.1,0,4.2l0,0c-1.2,1.2-3.1,1.2-4.2,0"/>
	<path class="st0" d="M16.5,15l5.1-5l2.5-2.5c4.7-4.7,12.3-4.7,17,0l0,0c4.7,4.7,4.7,12.3,0,17"/>
	<path class="st0" d="M16.5,15.1c-1.2,1.2-1.2,2.9,0,4.1l0,0c1.2,1.2,3.1,1.2,4.2,0l3.5-3.5h2.2c1.3,0,2.5-0.5,3.4-1.4l3.6-3.6"/>
	<path class="st0" d="M5.4,30.4L5.4,30.4c-1.2-1.2-1.2-3.1,0-4.2l1.4-1.4c1.2-1.2,3.1-1.2,4.2,0l0,0c1.2,1.2,1.2,3.1,0,4.2l-1.4,1.4
		C8.4,31.6,6.5,31.6,5.4,30.4z"/>
	<path class="st0" d="M9.6,34.7L9.6,34.7c-1.2-1.2-1.2-3.1,0-4.2L11,29c1.2-1.2,3.1-1.2,4.2,0l0,0c1.2,1.2,1.2,3.1,0,4.2l-1.4,1.4
		C12.7,35.8,10.8,35.8,9.6,34.7z"/>
	<path class="st0" d="M13.9,38.9L13.9,38.9c-1.2-1.2-1.2-3.1,0-4.2l1.4-1.4c1.2-1.2,3.1-1.2,4.2,0l0,0c1.2,1.2,1.2,3.1,0,4.2
		l-1.4,1.4C16.9,40.1,15,40.1,13.9,38.9z"/>
	<path class="st0" d="M18.1,43.2L18.1,43.2c-1.2-1.2-1.2-3.1,0-4.2l1.4-1.4c1.2-1.2,3.1-1.2,4.2,0l0,0c1.2,1.2,1.2,3.1,0,4.2
		l-1.4,1.4C21.2,44.3,19.3,44.3,18.1,43.2z"/>
</g>
</svg>
