<svg enable-background="new 0 0 20 19.4" viewBox="0 0 20 19.4" xmlns="http://www.w3.org/2000/svg"><path clip-rule="evenodd" d="m17.7 2.6h-2.2v-1.7c0-.5-.4-.9-.8-.9s-.8.4-.8.9v1.7h-7.7v-1.7c0-.5-.4-.9-.8-.9s-.9.4-.9.9v1.7h-2.1c-1.2 0-2.3 1-2.3 2.4v4.2c-.1 0-.1.1-.1.2s0 .2.1.3v7.3c0 1.3 1 2.4 2.3 2.4h15.3c1.2 0 2.3-1.1 2.3-2.4v-12.1c0-1.2-1-2.3-2.3-2.3zm-15.3 1.6 2.2.1v.8c-.1.5.3.9.8.9s.8-.4.8-.9v-.8h7.5v.8c0 .5.4.9.8.9s.8-.4.8-.9v-.8h2.2c.3 0 .6.3.6.6v3.6h-16.3v-3.6c0-.4.2-.7.6-.7zm15.3 13.4h-15.3c-.3 0-.6-.3-.6-.6v-6.7h16.5v6.7c0 .3-.3.6-.6.6z" fill="#20d2f4" fill-rule="evenodd"/></svg>