<?xml version="1.0" encoding="utf-8"?>
<!-- Generator: Adobe Illustrator 24.1.2, SVG Export Plug-In . SVG Version: 6.00 Build 0)  -->
<svg version="1.1" id="Ebene_1" xmlns="http://www.w3.org/2000/svg" xmlns:xlink="http://www.w3.org/1999/xlink" x="0px" y="0px"
	 viewBox="0 0 21 18.1" style="enable-background:new 0 0 21 18.1;" xml:space="preserve">
<style type="text/css">
	.st0{filter:url(#Adobe_OpacityMaskFilter);}
	.st1{fill-rule:evenodd;clip-rule:evenodd;fill:#FFFFFF;}
	.st2{mask:url(#mask-2_1_);}
	.st3{fill-rule:evenodd;clip-rule:evenodd;fill:#FF386E;}
	.st4{fill-rule:evenodd;clip-rule:evenodd;fill-opacity:0;stroke:#FF386E;stroke-width:4;}
</style>
<defs>
	<filter id="Adobe_OpacityMaskFilter" filterUnits="userSpaceOnUse" x="-1.5" y="-1.5" width="23.9" height="21.6">
		<feColorMatrix  type="matrix" values="1 0 0 0 0  0 1 0 0 0  0 0 1 0 0  0 0 0 1 0"/>
	</filter>
</defs>
<mask maskUnits="userSpaceOnUse" x="-1.5" y="-1.5" width="23.9" height="21.6" id="mask-2_1_">
	<rect class="st0" width="21" height="18.1"/>
	<g>
		<path id="path-1_3_" class="st1" d="M18.9,10l-1.6,1.6l-6,6.2c-0.2,0.2-0.5,0.3-0.8,0.3S9.9,18,9.7,17.8l-7.6-7.8
			C0,7.9,0,4.4,2.1,2.2s5.5-2.2,7.6,0L10.4,3l0.8-0.8c2.1-2.2,5.5-2.2,7.6,0C21,4.3,21,7.8,18.9,10z"/>
	</g>
</mask>
<g class="st2">
	<g>
		<path id="path-1_1_" class="st3" d="M18.9,10l-1.6,1.6l-6,6.2c-0.2,0.2-0.5,0.3-0.8,0.3S9.9,18,9.7,17.8l-7.6-7.8
			C0,7.9,0,4.4,2.1,2.2s5.5-2.2,7.6,0L10.4,3l0.8-0.8c2.1-2.2,5.5-2.2,7.6,0C21,4.3,21,7.8,18.9,10z"/>
	</g>
	<g>
		<path id="path-1_2_" class="st4" d="M18.9,10l-1.6,1.6l-6,6.2c-0.2,0.2-0.5,0.3-0.8,0.3S9.9,18,9.7,17.8l-7.6-7.8
			C0,7.9,0,4.4,2.1,2.2s5.5-2.2,7.6,0L10.4,3l0.8-0.8c2.1-2.2,5.5-2.2,7.6,0C21,4.3,21,7.8,18.9,10z"/>
	</g>
</g>
</svg>
