<?xml version="1.0" encoding="utf-8"?>
<!-- Generator: Adobe Illustrator 24.1.2, SVG Export Plug-In . SVG Version: 6.00 Build 0)  -->
<svg version="1.1" id="Ebene_1" xmlns="http://www.w3.org/2000/svg" xmlns:xlink="http://www.w3.org/1999/xlink" x="0px" y="0px" width="100px" height="100px"
	 viewBox="0 0 100 100" style="enable-background:new 0 0 100 100;" xml:space="preserve">
<style type="text/css">
	.st0{fill:#FFFFFF;}
	.st1{fill:#9C9B9B;}
</style>
<g id="pLPwYI.tif_1_">
	<g>
		<path class="st0" d="M49.9,18.1C60.6,36.9,71.2,55.4,81.8,74c-13.7,2.7-27.3,5.3-41,7.9C43.8,60.7,46.8,39.6,49.9,18.1z"/>
		<path class="st0" d="M27.3,57.9c3.1,5.4,6.1,10.6,9.1,16c-6.2,0-12.2,0-18.3,0C21.2,68.6,24.2,63.3,27.3,57.9z"/>
		<path class="st1" d="M27.3,57.9c4.2,1.2,12.2,3.5,16.3,4.7c-0.7,4.7-2.1,14.4-2.8,19.4C37.4,75.9,30.8,63.9,27.3,57.9z"/>
	</g>
</g>
</svg>
