<?xml version="1.0" encoding="UTF-8"?>
<svg width="100px" height="100px" viewBox="0 0 255 255" version="1.1" xmlns="http://www.w3.org/2000/svg" xmlns:xlink="http://www.w3.org/1999/xlink">
    <!-- Generator: Sketch 41.2 (35397) - http://www.bohemiancoding.com/sketch -->
    <title>westwerk-logotype</title>
    <desc>Created with Sketch.</desc>
    <defs></defs>
    <g id="Page-1" stroke="none" stroke-width="1" fill="none" fill-rule="evenodd">
        <g id="westwerk-logotype" transform="translate(-301.000000, -271.000000)" fill="#00FF00">
            <g id="Bildmarke" transform="translate(364.730192, 318.617583)">
                <path d="M120.850803,135.114141 L22.9202448,135.114141 C20.3678167,135.114141 18.2985326,133.044038 18.2985326,130.490051 L18.2985326,130.39668 C18.2985326,127.842693 20.3678167,125.772591 22.9202448,125.772591 L120.850803,125.772591 C123.40378,125.772591 125.473064,127.842693 125.473064,130.39668 L125.473064,130.490051 C125.473064,133.044038 123.40378,135.114141 120.850803,135.114141" id="Fill-1"></path>
                <path d="M61.4658081,6.67057414 L8.89753726,119.44859 C7.81869851,121.763106 5.06862051,122.764379 2.75501925,121.685113 L2.67046904,121.645568 C0.356867778,120.566302 -0.644558111,117.815137 0.434280635,115.50062 L53.0031005,2.72260486 C54.0819392,0.408088644 56.8320173,-0.593184032 59.1456185,0.486081359 L59.2301687,0.525626962 C61.54377,1.60489235 62.5446468,4.35605792 61.4658081,6.67057414" id="Fill-3"></path>
            </g>
        </g>
    </g>
</svg>
