<?xml version="1.0" encoding="utf-8"?>
<!-- Generator: Adobe Illustrator 24.3.0, SVG Export Plug-In . SVG Version: 6.00 Build 0)  -->
<svg version="1.1" id="Ebene_1" xmlns="http://www.w3.org/2000/svg" xmlns:xlink="http://www.w3.org/1999/xlink" x="0px" y="0px"
	 viewBox="0 0 40.3 40.3" style="enable-background:new 0 0 40.3 40.3;" xml:space="preserve">
<style type="text/css">
	.st0{fill:none;stroke:#FFFFFF;stroke-width:4;stroke-linecap:round;stroke-linejoin:round;stroke-miterlimit:10;}
	.st1{fill:#FFFFFF;}
	.st2{fill:#E71C84;}
	.st3{fill:none;stroke:#E71C84;stroke-width:4;stroke-linecap:round;stroke-linejoin:round;stroke-miterlimit:10;}
</style>
<g>
	<g>
		<path class="st2" d="M26,17.1c-3.7,0-6.8-3-6.8-6.8c0-3.7,3-6.8,6.8-6.8s6.8,3,6.8,6.8C32.8,14,29.7,17.1,26,17.1z M26,6.5
			c-2.1,0-3.8,1.7-3.8,3.8c0,2.1,1.7,3.8,3.8,3.8s3.8-1.7,3.8-3.8C29.8,8.2,28.1,6.5,26,6.5z"/>
	</g>
	<g>
		<path class="st2" d="M29.1,36.8h-5.9c-1.6,0-3-0.6-4.1-1.8c-0.9-1-1.3-2.4-1.2-3.7l0.5-4.4c0.1-3.9,3.5-7.1,7.7-7.1
			c4.2,0,7.6,3.2,7.7,7.1l0.5,4.4c0.2,1.3-0.3,2.7-1.2,3.7C32.1,36.1,30.6,36.8,29.1,36.8z M26.1,22.9c-2.6,0-4.7,1.9-4.7,4.2
			c0,0.1,0,0.1,0,0.2l-0.5,4.5c-0.1,0.5,0.1,1,0.5,1.4c0.4,0.5,1.1,0.8,1.8,0.8h5.9c0.7,0,1.4-0.3,1.8-0.8c0.3-0.4,0.5-0.9,0.5-1.4
			l-0.5-4.5c0-0.1,0-0.1,0-0.2C30.8,24.7,28.7,22.9,26.1,22.9z M19.9,27L19.9,27L19.9,27z"/>
	</g>
	<g>
		<path class="st2" d="M14.1,17.1c-3.7,0-6.8-3-6.8-6.8c0-3.7,3-6.8,6.8-6.8c0.8,0,1.5,0.7,1.5,1.5s-0.7,1.5-1.5,1.5
			c-2.1,0-3.8,1.7-3.8,3.8c0,2.1,1.7,3.8,3.8,3.8c0.8,0,1.5,0.7,1.5,1.5C15.6,16.4,14.9,17.1,14.1,17.1z"/>
	</g>
	<g>
		<path class="st2" d="M13.1,36.8h-1.9c-1.6,0-3-0.6-4.1-1.8c-0.9-1-1.3-2.4-1.2-3.7l0.5-4.4c0.1-3.9,3.5-7.1,7.7-7.1
			c0.8,0,1.5,0.7,1.5,1.5s-0.7,1.5-1.5,1.5c-2.6,0-4.7,1.9-4.7,4.2c0,0.1,0,0.1,0,0.2l-0.5,4.5c-0.1,0.5,0.1,1,0.5,1.4
			c0.4,0.5,1.1,0.8,1.8,0.8h1.9c0.8,0,1.5,0.7,1.5,1.5S13.9,36.8,13.1,36.8z"/>
	</g>
</g>
</svg>
