<svg viewBox="0 0 260 415" xmlns="http://www.w3.org/2000/svg" xmlns:xlink="http://www.w3.org/1999/xlink"><mask id="a" height="268" maskUnits="userSpaceOnUse" width="1277" x="-972.32" y="50.5"><path d="m-972.32 50.5h1277v268h-1277z"/><path d="m131.47 60.39-1.68 1.61-6.25 6.16a1.17 1.17 0 0 1 -.86.32 1.42 1.42 0 0 1 -.86-.32l-7.93-7.7a5.39 5.39 0 0 1 0-7.78 5.73 5.73 0 0 1 8 0l.77.74.82-.79a5.73 5.73 0 0 1 8 0 5.31 5.31 0 0 1 -.01 7.76z" fill="#fff" fill-rule="evenodd"/></mask><mask id="b" height="268" maskUnits="userSpaceOnUse" width="1277" x="-1015.4" y="82.94"><path d="m-1015.4 82.94h1277v268h-1277z"/><path d="m161.68 247.46-3.75 3.71-13.9 14a2.58 2.58 0 0 1 -1.93.75 3.09 3.09 0 0 1 -1.93-.75l-17.65-17.52a12.55 12.55 0 0 1 17.76-17.74l1.71 1.7 1.82-1.81a12.6 12.6 0 0 1 17.76 0 12.29 12.29 0 0 1 .11 17.66z" fill="#fff" fill-rule="evenodd"/></mask><g fill-rule="evenodd"><path d="m184.17 340.69a2.51 2.51 0 0 1 2.49-2.5h13.68a2.51 2.51 0 0 1 2.49 2.5v13.72a2.5 2.5 0 0 1 -2.49 2.5h-13.68a2.5 2.5 0 0 1 -2.49-2.5zm21.15 9v-5.49l5.72-2.24a1.34 1.34 0 0 1 1.74 1.24v7.49a1.22 1.22 0 0 1 -1.74 1.12z" fill="#69ff47"/><path d="m206 153.37a11.07 11.07 0 1 1 11.07-11.06 11.1 11.1 0 0 1 -11.07 11.06zm0-20.06a9.06 9.06 0 0 0 -9 9 9 9 0 1 0 9-9zm3.74 14a1.11 1.11 0 0 0 .69.27 1.07 1.07 0 0 0 .69-.27.92.92 0 0 0 0-1.39l-4.15-4v-6.12a1 1 0 1 0 -1.93 0v6.51a1.06 1.06 0 0 0 .27.69z" fill="#20d2f4"/><path d="m20.52 364.2a17.13 17.13 0 0 0 16.87 17.3c9.3 0 16.87-8 16.87-17.3s-7.78-17.31-16.87-17.31a17.13 17.13 0 0 0 -16.87 17.31zm3 0c0-7.57 6.27-14.06 13.63-14.06a13.8 13.8 0 0 1 13.65 14.06c0 7.57-6.27 14.05-13.62 14.05s-13.63-6.48-13.63-14.05z" fill="#ff0096"/><path d="m32.85 359.44v9.3a1.52 1.52 0 0 0 2.38 1.3l8.22-5a1.62 1.62 0 0 0 0-2.81l-8.22-4.33a1.78 1.78 0 0 0 -2.38 1.54z" fill="#ff0096"/></g><g mask="url(#a)"><path d="m131.47 60.39-1.68 1.61-6.25 6.16a1.17 1.17 0 0 1 -.86.32 1.42 1.42 0 0 1 -.86-.32l-7.93-7.7a5.39 5.39 0 0 1 0-7.78 5.73 5.73 0 0 1 8 0l.77.74.82-.79a5.73 5.73 0 0 1 8 0 5.31 5.31 0 0 1 -.01 7.76z" fill="#ff386e" fill-rule="evenodd"/></g><g mask="url(#b)"><path d="m161.68 247.46-3.75 3.71-13.9 14a2.58 2.58 0 0 1 -1.93.75 3.09 3.09 0 0 1 -1.93-.75l-17.65-17.52a12.55 12.55 0 0 1 17.76-17.74l1.71 1.7 1.82-1.81a12.6 12.6 0 0 1 17.76 0 12.29 12.29 0 0 1 .11 17.66z" fill="#2c2f3b" fill-rule="evenodd"/></g></svg>