<?xml version="1.0" encoding="utf-8"?>
<!-- Generator: Adobe Illustrator 24.1.3, SVG Export Plug-In . SVG Version: 6.00 Build 0)  -->
<svg version="1.1" xmlns="http://www.w3.org/2000/svg" xmlns:xlink="http://www.w3.org/1999/xlink" x="0px" y="0px"
	 viewBox="0 0 338.3 416.2" style="enable-background:new 0 0 338.3 416.2;" xml:space="preserve">
<style type="text/css">
	.st0{display:none;}
	.st1{fill:none;stroke:#2C2F3B;stroke-width:2;stroke-miterlimit:10;}
	.st2{fill:none;stroke:#FFE448;stroke-width:2;stroke-linecap:round;stroke-linejoin:round;stroke-miterlimit:10;}
	.st3{fill:none;stroke:#FFE448;stroke-linecap:round;stroke-linejoin:round;stroke-miterlimit:10;}
	.st4{fill:none;stroke:#69FF47;stroke-width:2;stroke-linecap:round;stroke-linejoin:round;stroke-miterlimit:10;}
	.st5{fill:none;stroke:#69FF47;stroke-linecap:round;stroke-linejoin:round;stroke-miterlimit:10;}
	.st6{fill:none;stroke:#FF0096;stroke-width:2;stroke-linecap:round;stroke-linejoin:round;stroke-miterlimit:10;}
	.st7{fill:none;stroke:#FF0096;stroke-linecap:round;stroke-linejoin:round;stroke-miterlimit:10;}
	.st8{fill:none;stroke:#22D1F9;stroke-width:2;stroke-miterlimit:10;}
	.st9{fill:none;stroke:#22D1F9;stroke-miterlimit:10;}
	.st10{display:inline;}
	.st11{filter:url(#Adobe_OpacityMaskFilter);}
	.st12{fill-rule:evenodd;clip-rule:evenodd;fill:#FFFFFF;}
	.st13{mask:url(#mask-2_2_);}
	.st14{fill-rule:evenodd;clip-rule:evenodd;fill:#2C2F3B;}
	.st15{fill-rule:evenodd;clip-rule:evenodd;fill-opacity:0;stroke:#2C2F3B;stroke-width:4;}
	.st16{filter:url(#Adobe_OpacityMaskFilter_1_);}
	.st17{mask:url(#mask-4_2_);}
	.st18{filter:url(#Adobe_OpacityMaskFilter_2_);}
	.st19{mask:url(#mask-6_2_);}
	.st20{filter:url(#Adobe_OpacityMaskFilter_3_);}
	.st21{mask:url(#mask-8_2_);}
	.st22{filter:url(#Adobe_OpacityMaskFilter_4_);}
	.st23{mask:url(#mask-10_2_);}
	.st24{filter:url(#Adobe_OpacityMaskFilter_5_);}
	.st25{mask:url(#mask-12_2_);}
	.st26{fill-rule:evenodd;clip-rule:evenodd;fill:#6C49E5;}
	.st27{fill-rule:evenodd;clip-rule:evenodd;fill-opacity:0;stroke:#6C49E5;stroke-width:4;}
	.st28{filter:url(#Adobe_OpacityMaskFilter_6_);}
	.st29{mask:url(#mask-14_2_);}
	.st30{filter:url(#Adobe_OpacityMaskFilter_7_);}
	.st31{mask:url(#mask-16_2_);}
	.st32{filter:url(#Adobe_OpacityMaskFilter_8_);}
	.st33{mask:url(#mask-18_2_);}
	.st34{fill-rule:evenodd;clip-rule:evenodd;fill:#69FF47;}
	.st35{fill-rule:evenodd;clip-rule:evenodd;fill-opacity:0;stroke:#69FF47;stroke-width:4;}
	.st36{filter:url(#Adobe_OpacityMaskFilter_9_);}
	.st37{mask:url(#mask-20_2_);}
	.st38{fill-rule:evenodd;clip-rule:evenodd;fill:#FF386E;}
	.st39{fill-rule:evenodd;clip-rule:evenodd;fill-opacity:0;stroke:#FF386E;stroke-width:4;}
	.st40{filter:url(#Adobe_OpacityMaskFilter_10_);}
	.st41{mask:url(#mask-22_2_);}
	.st42{filter:url(#Adobe_OpacityMaskFilter_11_);}
	.st43{mask:url(#mask-24_2_);}
	.st44{filter:url(#Adobe_OpacityMaskFilter_12_);}
	.st45{mask:url(#mask-26_2_);}
	.st46{filter:url(#Adobe_OpacityMaskFilter_13_);}
	.st47{mask:url(#mask-28_2_);}
	.st48{filter:url(#Adobe_OpacityMaskFilter_14_);}
	.st49{mask:url(#mask-30_2_);}
	.st50{filter:url(#Adobe_OpacityMaskFilter_15_);}
	.st51{mask:url(#mask-32_2_);}
</style>
<g id="Ebene_1" class="st0">
</g>
<g id="Ebene_2">
	<path class="st1" d="M278.4,143.8h18.7c5,0,9.1,4.1,9.1,9.1v56.5c0,5-4.1,9.1-9.1,9.1h-18.7c-5,0-9.1-4.1-9.1-9.1v-56.5
		C269.3,147.9,273.3,143.8,278.4,143.8z"/>
	<path class="st1" d="M280.9,268.5h13.6c6.5,0,11.7,5.2,11.7,11.7v99.1c0,6.5-5.2,11.7-11.7,11.7h-13.6c-6.5,0-11.7-5.2-11.7-11.7
		v-99.1C269.3,273.8,274.5,268.5,280.9,268.5z"/>
	<path class="st1" d="M149.5,156.7v13.6c0,6.5-5.2,11.7-11.7,11.7H38.7c-6.5,0-11.7-5.2-11.7-11.7v-13.6c0-6.5,5.2-11.7,11.7-11.7
		h99.1C144.2,145,149.5,150.2,149.5,156.7z"/>
	<path class="st1" d="M141,310.6L141,310.6c5.1,0,9.2,4.1,9.2,9.2v104c0,5.1-4.1,9.2-9.2,9.2h0c-5.1,0-9.2-4.1-9.2-9.2v-104
		C131.7,314.7,135.9,310.6,141,310.6z"/>
	<path class="st1" d="M385.1,81.2L385.1,81.2c0,5.1-4.1,9.3-9.2,9.3h-104c-5.1,0-9.2-4.1-9.2-9.2v0c0-5.1,4.1-9.2,9.2-9.2h104
		C380.9,72,385.1,76.1,385.1,81.2z"/>
	<path class="st1" d="M219.3,336.8l0-255.3c0-4.9-3.7-9.2-8.6-9.5c-5.4-0.3-9.9,3.9-9.9,9.2v153h-88.3c-5.1,0-9.2,4.1-9.2,9.2v0
		c0,5.1,4.1,9.2,9.2,9.2h88.3v83.7c0,5,3.7,9.3,8.7,9.6C214.8,346.4,219.3,342.1,219.3,336.8z"/>
	<path class="st1" d="M76.9,93.8l65.2,0c4,0,7.3-3.3,7.3-7.3V27c0-5.1-4.1-9.2-9.2-9.2h0c-5.1,0-9.2,4.1-9.2,9.2v48.3l-53.7,0
		c-5,0-9.3,3.7-9.6,8.7C67.4,89.3,71.6,93.8,76.9,93.8z"/>
	<path class="st2" d="M174.8,47.9l2.6,2.6l2.4-2.4l-2.6-2.6l9.1-9.1c2.6,1.6,6.1,1.3,8.3-0.9c2.6-2.6,2.6-6.9,0-9.5
		c-2.6-2.6-6.9-2.6-9.5,0c-2.2,2.2-2.5,5.5-1.1,8.1l-16.2,16.2l2.3,2.3l3.6,3.6l2.4-2.4l-3.6-3.6L174.8,47.9z"/>
	<path class="st6" d="M80.9,392.5l2.6,2.6l2.4-2.4l-2.6-2.6l9.1-9.1c2.6,1.6,6.1,1.3,8.3-0.9c2.6-2.6,2.6-6.9,0-9.5
		c-2.6-2.6-6.9-2.6-9.5,0c-2.2,2.2-2.5,5.5-1.1,8.1l-16.2,16.2l2.3,2.3l3.6,3.6l2.4-2.4l-3.6-3.6L80.9,392.5z"/>
	<circle class="st3" cx="190.8" cy="29.8" r="1.9"/>
	<g>
		<g>
			<path class="st8" d="M121.8,225.1H106c-1.5,0-2.8-1.3-2.8-2.8v-15.8c0-1.5,1.3-2.8,2.8-2.8h15.8c1.5,0,2.8,1.3,2.8,2.8v15.8
				C124.6,223.9,123.4,225.1,121.8,225.1z"/>
			<path class="st8" d="M120.1,203.7V198c0-3.4-2.8-6.2-6.2-6.2h0c-3.4,0-6.2,2.8-6.2,6.2v5.7"/>
			<path class="st9" d="M116.7,212.2c0-1.5-1.2-2.7-2.7-2.7c-1.5,0-2.7,1.2-2.7,2.7c0,1,0.5,1.8,1.3,2.3c0,0,0,0,0,0v2.2
				c0,0.8,0.7,1.5,1.5,1.5c0.8,0,1.5-0.7,1.5-1.5v-2.2c0,0,0-0.1,0-0.1C116.2,213.9,116.7,213.1,116.7,212.2z"/>
		</g>
	</g>
	<circle class="st7" cx="97.1" cy="374.1" r="1.9"/>
</g>
<g id="Ebene_3" class="st0">
</g>
</svg>
