<svg xmlns="http://www.w3.org/2000/svg" width="22.109" height="22.032" viewBox="0 0 22.109 22.032">
  <path fill="rgb(255,255,255)" fill-rule="evenodd" d="M11.1786499 20.0415039c1.32714844 1.32714844 3.01159668 1.99072266 4.69607544 1.99072266 1.53131104 0 3.01159668-.56152344 4.134552-1.68457031l1.42922974-1.42919922c.45941162-.45947265.71463013-1.0209961.66357422-1.68457031 0-.61230469-.2552185-1.17382813-.71459961-1.63330078l-2.65429688-2.65429688c-.96984863-.91894531-2.45013427-.91894531-3.31787109-.05126953l-.71463013.71484375-6.22735595-6.22753906.7145996-.71435547c.45941163-.45947266.71463013-1.0209961.66357422-1.68457031 0-.61279297-.2552185-1.17382813-.7145996-1.63330078L6.48260498.69580078C5.51275635-.22314453 4.0324707-.22314453 3.16473388.64453125L1.73550416 2.07373047C.56149292 3.24804687 0 4.77929687 0 6.41259766c.1020813 1.6845703.76565552 3.2158203 1.99072266 4.44091796l9.18792724 9.18798829zM4.59399414 2.12548829c0-.05126953.0510254-.05126953.15310669-.05126953.0510559 0 .1531372.05126953.25524902.10205078l2.75637818 2.7055664c.05102539.05078126.1020813.15283204.1020813.25488282 0 .05126953 0 .10205078-.05105591.15332031L6.63574219 6.4638672c-.30627442.30664062-.40835572.66357422-.40835572 1.0209961 0 .35742187.15313721.66357421.40835572.9189453l7.1461792 7.1459961c.56149292.5102539 1.42922973.5102539 1.93966674 0l1.17401124-1.17382813c.0510559-.05126953.1020813-.05126953.1531372-.05126953.1020813 0 .20419312.05126953.2552185.10205078l2.65429688 2.65429688c.05105591.05126953.1020813.15332031.1020813.2553711 0 .05078124 0 .10205077-.05102539.1533203l-1.42926025 1.42919922c-1.58236695 1.53125-4.2366333 1.42919922-5.92111206-.30664062l-9.18792725-9.1875c-.86773682-.86816407-1.32714844-1.9399414-1.37817383-3.06298828-.0510559-1.07177735.3572998-2.09277344 1.07189942-2.80712891l1.42926025-1.42919922z"/>
</svg>
