<?xml version="1.0" encoding="utf-8"?>
<!-- Generator: Adobe Illustrator 24.1.3, SVG Export Plug-In . SVG Version: 6.00 Build 0)  -->
<svg version="1.1" xmlns="http://www.w3.org/2000/svg" xmlns:xlink="http://www.w3.org/1999/xlink" x="0px" y="0px"
	 viewBox="0 0 354 416.2" style="enable-background:new 0 0 354 416.2;" xml:space="preserve">
<style type="text/css">
	.st0{display:none;}
	.st1{fill:none;stroke:#2C2F3B;stroke-width:2;stroke-miterlimit:10;}
	.st2{fill:none;stroke:#FFE448;stroke-width:2;stroke-linecap:round;stroke-linejoin:round;stroke-miterlimit:10;}
	.st3{fill:none;stroke:#FFE448;stroke-linecap:round;stroke-linejoin:round;stroke-miterlimit:10;}
	.st4{fill:none;stroke:#69FF47;stroke-width:2;stroke-linecap:round;stroke-linejoin:round;stroke-miterlimit:10;}
	.st5{fill:none;stroke:#69FF47;stroke-linecap:round;stroke-linejoin:round;stroke-miterlimit:10;}
	.st6{fill:none;stroke:#FF0096;stroke-width:2;stroke-linecap:round;stroke-linejoin:round;stroke-miterlimit:10;}
	.st7{fill:none;stroke:#FF0096;stroke-linecap:round;stroke-linejoin:round;stroke-miterlimit:10;}
	.st8{fill:none;stroke:#22D1F9;stroke-width:2;stroke-miterlimit:10;}
	.st9{fill:none;stroke:#22D1F9;stroke-miterlimit:10;}
	.st10{display:inline;}
	.st11{filter:url(#Adobe_OpacityMaskFilter);}
	.st12{fill-rule:evenodd;clip-rule:evenodd;fill:#FFFFFF;}
	.st13{mask:url(#mask-2_2_);}
	.st14{fill-rule:evenodd;clip-rule:evenodd;fill:#2C2F3B;}
	.st15{fill-rule:evenodd;clip-rule:evenodd;fill-opacity:0;stroke:#2C2F3B;stroke-width:4;}
	.st16{filter:url(#Adobe_OpacityMaskFilter_1_);}
	.st17{mask:url(#mask-4_2_);}
	.st18{filter:url(#Adobe_OpacityMaskFilter_2_);}
	.st19{mask:url(#mask-6_2_);}
	.st20{filter:url(#Adobe_OpacityMaskFilter_3_);}
	.st21{mask:url(#mask-8_2_);}
	.st22{filter:url(#Adobe_OpacityMaskFilter_4_);}
	.st23{mask:url(#mask-10_2_);}
	.st24{filter:url(#Adobe_OpacityMaskFilter_5_);}
	.st25{mask:url(#mask-12_2_);}
	.st26{fill-rule:evenodd;clip-rule:evenodd;fill:#6C49E5;}
	.st27{fill-rule:evenodd;clip-rule:evenodd;fill-opacity:0;stroke:#6C49E5;stroke-width:4;}
	.st28{filter:url(#Adobe_OpacityMaskFilter_6_);}
	.st29{mask:url(#mask-14_2_);}
	.st30{filter:url(#Adobe_OpacityMaskFilter_7_);}
	.st31{mask:url(#mask-16_2_);}
	.st32{filter:url(#Adobe_OpacityMaskFilter_8_);}
	.st33{mask:url(#mask-18_2_);}
	.st34{fill-rule:evenodd;clip-rule:evenodd;fill:#69FF47;}
	.st35{fill-rule:evenodd;clip-rule:evenodd;fill-opacity:0;stroke:#69FF47;stroke-width:4;}
	.st36{filter:url(#Adobe_OpacityMaskFilter_9_);}
	.st37{mask:url(#mask-20_2_);}
	.st38{fill-rule:evenodd;clip-rule:evenodd;fill:#FF386E;}
	.st39{fill-rule:evenodd;clip-rule:evenodd;fill-opacity:0;stroke:#FF386E;stroke-width:4;}
	.st40{filter:url(#Adobe_OpacityMaskFilter_10_);}
	.st41{mask:url(#mask-22_2_);}
	.st42{filter:url(#Adobe_OpacityMaskFilter_11_);}
	.st43{mask:url(#mask-24_2_);}
	.st44{filter:url(#Adobe_OpacityMaskFilter_12_);}
	.st45{mask:url(#mask-26_2_);}
	.st46{filter:url(#Adobe_OpacityMaskFilter_13_);}
	.st47{mask:url(#mask-28_2_);}
	.st48{filter:url(#Adobe_OpacityMaskFilter_14_);}
	.st49{mask:url(#mask-30_2_);}
	.st50{filter:url(#Adobe_OpacityMaskFilter_15_);}
	.st51{mask:url(#mask-32_2_);}
</style>
<g id="Ebene_1" class="st0">
	
		<image style="display:inline;overflow:visible;" width="1340" height="417" xlink:href="EB4657F21DDA1212.jpg"  transform="matrix(1 0 0 1 -1.347 0)">
	</image>
</g>
<g id="Ebene_2">
	<path class="st1" d="M31.6,147.9v-18.7c0-5,4.1-9.1,9.1-9.1h56.5c5,0,9.1,4.1,9.1,9.1v18.7c0,5-4.1,9.1-9.1,9.1H40.8
		C35.7,157,31.6,152.9,31.6,147.9z"/>
	<path class="st1" d="M156.4,145.3v-13.6c0-6.5,5.2-11.7,11.7-11.7h99.1c6.5,0,11.7,5.2,11.7,11.7v13.6c0,6.5-5.2,11.7-11.7,11.7
		h-99.1C161.6,157,156.4,151.8,156.4,145.3z"/>
	<path class="st1" d="M44.5,276.8h13.6c6.5,0,11.7,5.2,11.7,11.7v99.1c0,6.5-5.2,11.7-11.7,11.7H44.5c-6.5,0-11.7-5.2-11.7-11.7
		v-99.1C32.8,282,38.1,276.8,44.5,276.8z"/>
	<path class="st1" d="M198.4,285.3L198.4,285.3c0-5.1,4.1-9.2,9.2-9.2h104c5.1,0,9.2,4.1,9.2,9.2l0,0c0,5.1-4.1,9.2-9.2,9.2h-104
		C202.6,294.5,198.4,290.4,198.4,285.3z"/>
	<path class="st1" d="M224.7,207H-30.6c-4.9,0-9.2,3.7-9.5,8.6c-0.3,5.4,3.9,9.9,9.2,9.9h153v88.3c0,5.1,4.1,9.2,9.2,9.2h0
		c5.1,0,9.2-4.1,9.2-9.2v-88.3h83.7c5,0,9.3-3.7,9.6-8.7C234.3,211.5,230,207,224.7,207z"/>
	<path class="st1" d="M60.6,70h255.3c4.9,0,9.2-3.7,9.5-8.6c0.3-5.4-3.9-9.9-9.2-9.9h-153v-88.3c0-5.1-4.1-9.2-9.2-9.2h0
		c-5.1,0-9.2,4.1-9.2,9.2v88.3H60.9c-4.9,0-9.2,3.7-9.5,8.6C51,65.5,55.3,70,60.6,70z"/>
	<g>
		<path class="st2" d="M85.8,261.7l2.6,2.6l2.4-2.4l-2.6-2.6l9.1-9.1c2.6,1.6,6.1,1.3,8.3-0.9c2.6-2.6,2.6-6.9,0-9.5
			c-2.6-2.6-6.9-2.6-9.5,0c-2.2,2.2-2.5,5.5-1.1,8.1l-16.2,16.2l2.3,2.3l3.6,3.6l2.4-2.4l-3.6-3.6L85.8,261.7z"/>
		<circle class="st3" cx="101.9" cy="243.6" r="1.9"/>
	</g>
	<path class="st4" d="M301.1,31.5l2.6,2.6l2.4-2.4l-2.6-2.6l9.1-9.1c2.6,1.6,6.1,1.3,8.3-0.9c2.6-2.6,2.6-6.9,0-9.5s-6.9-2.6-9.5,0
		c-2.2,2.2-2.5,5.5-1.1,8.1L294.1,34l2.3,2.3l3.6,3.6l2.4-2.4l-3.6-3.6L301.1,31.5z"/>
	<circle class="st5" cx="317.2" cy="13.5" r="1.9"/>
	<g>
		<path class="st6" d="M139.3,151.8h-15.8c-1.5,0-2.8-1.3-2.8-2.8v-15.8c0-1.5,1.3-2.8,2.8-2.8h15.8c1.5,0,2.8,1.3,2.8,2.8V149
			C142.1,150.6,140.8,151.8,139.3,151.8z"/>
		<path class="st6" d="M137.5,130.4v-5.7c0-3.4-2.8-6.2-6.2-6.2h0c-3.4,0-6.2,2.8-6.2,6.2v5.7"/>
		<path class="st7" d="M134.1,138.8c0-1.5-1.2-2.7-2.7-2.7c-1.5,0-2.7,1.2-2.7,2.7c0,1,0.5,1.8,1.3,2.3c0,0,0,0,0,0v2.2
			c0,0.8,0.7,1.5,1.5,1.5c0.8,0,1.5-0.7,1.5-1.5v-2.2c0,0,0-0.1,0-0.1C133.7,140.5,134.1,139.7,134.1,138.8z"/>
	</g>
	<g>
		<g>
			<path class="st8" d="M223.2,357.5h-15.8c-1.5,0-2.8-1.3-2.8-2.8v-15.8c0-1.5,1.3-2.8,2.8-2.8h15.8c1.5,0,2.8,1.3,2.8,2.8v15.8
				C226,356.3,224.7,357.5,223.2,357.5z"/>
			<path class="st8" d="M221.4,336.1v-5.7c0-3.4-2.8-6.2-6.2-6.2l0,0c-3.4,0-6.2,2.8-6.2,6.2v5.7"/>
			<path class="st9" d="M218,344.5c0-1.5-1.2-2.7-2.7-2.7c-1.5,0-2.7,1.2-2.7,2.7c0,1,0.5,1.8,1.3,2.3c0,0,0,0,0,0v2.2
				c0,0.8,0.7,1.5,1.5,1.5c0.8,0,1.5-0.7,1.5-1.5v-2.2c0,0,0-0.1,0-0.1C217.6,346.2,218,345.4,218,344.5z"/>
		</g>
	</g>
</g>
<g id="Ebene_3" class="st0">
	<g class="st10">
		<defs>
			<filter id="Adobe_OpacityMaskFilter" filterUnits="userSpaceOnUse" x="71.8" y="127.7" width="50.5" height="43.8">
				<feColorMatrix  type="matrix" values="1 0 0 0 0  0 1 0 0 0  0 0 1 0 0  0 0 0 1 0"/>
			</filter>
		</defs>
		<mask maskUnits="userSpaceOnUse" x="71.8" y="127.7" width="50.5" height="43.8" id="mask-2_2_">
			<rect x="48.5" y="122.5" class="st11" width="1277" height="268"/>
			<g>
				<path id="path-1_4_" class="st12" d="M116.6,151l-3.7,3.7l-13.9,14c-0.5,0.5-1.2,0.7-1.9,0.7s-1.4-0.3-1.9-0.7l-17.7-17.5
					c-4.9-4.9-4.9-12.9,0-17.7c4.9-4.9,12.9-4.9,17.8,0l1.7,1.7l1.8-1.8c4.9-4.9,12.9-4.9,17.8,0C121.5,138.2,121.5,146.2,116.6,151
					z"/>
			</g>
		</mask>
		<g class="st13">
			<g>
				<path id="path-1_1_" class="st14" d="M116.6,151l-3.7,3.7l-13.9,14c-0.5,0.5-1.2,0.7-1.9,0.7s-1.4-0.3-1.9-0.7l-17.7-17.5
					c-4.9-4.9-4.9-12.9,0-17.7c4.9-4.9,12.9-4.9,17.8,0l1.7,1.7l1.8-1.8c4.9-4.9,12.9-4.9,17.8,0C121.5,138.2,121.5,146.2,116.6,151
					z"/>
			</g>
			<g>
				<path id="path-1_2_" class="st15" d="M116.6,151l-3.7,3.7l-13.9,14c-0.5,0.5-1.2,0.7-1.9,0.7s-1.4-0.3-1.9-0.7l-17.7-17.5
					c-4.9-4.9-4.9-12.9,0-17.7c4.9-4.9,12.9-4.9,17.8,0l1.7,1.7l1.8-1.8c4.9-4.9,12.9-4.9,17.8,0C121.5,138.2,121.5,146.2,116.6,151
					z"/>
			</g>
		</g>
		<defs>
			<filter id="Adobe_OpacityMaskFilter_1_" filterUnits="userSpaceOnUse" x="173.8" y="235.7" width="51.5" height="44.7">
				<feColorMatrix  type="matrix" values="1 0 0 0 0  0 1 0 0 0  0 0 1 0 0  0 0 0 1 0"/>
			</filter>
		</defs>
		<mask maskUnits="userSpaceOnUse" x="173.8" y="235.7" width="51.5" height="44.7" id="mask-8_2_">
			<rect x="48.5" y="122.5" class="st16" width="1277" height="268"/>
			<g>
				<path id="path-7_4_" class="st12" d="M219.5,259.5l-3.8,3.8l-14.2,14.4c-0.5,0.5-1.2,0.8-2,0.8s-1.4-0.3-2-0.8l-18-18
					c-5-5-5-13.2,0-18.2c5-5,13.2-5,18.1,0l1.7,1.7l1.9-1.8c5-5,13.2-5,18.1,0C224.5,246.5,224.5,254.6,219.5,259.5z"/>
			</g>
		</mask>
		<g class="st21">
			<g>
				<path id="path-7_1_" class="st14" d="M219.5,259.5l-3.8,3.8l-14.2,14.4c-0.5,0.5-1.2,0.8-2,0.8s-1.4-0.3-2-0.8l-18-18
					c-5-5-5-13.2,0-18.2c5-5,13.2-5,18.1,0l1.7,1.7l1.9-1.8c5-5,13.2-5,18.1,0C224.5,246.5,224.5,254.6,219.5,259.5z"/>
			</g>
			<g>
				<path id="path-7_2_" class="st15" d="M219.5,259.5l-3.8,3.8l-14.2,14.4c-0.5,0.5-1.2,0.8-2,0.8s-1.4-0.3-2-0.8l-18-18
					c-5-5-5-13.2,0-18.2c5-5,13.2-5,18.1,0l1.7,1.7l1.9-1.8c5-5,13.2-5,18.1,0C224.5,246.5,224.5,254.6,219.5,259.5z"/>
			</g>
		</g>
		<defs>
			<filter id="Adobe_OpacityMaskFilter_2_" filterUnits="userSpaceOnUse" x="113.1" y="371" width="24.9" height="21.5">
				<feColorMatrix  type="matrix" values="1 0 0 0 0  0 1 0 0 0  0 0 1 0 0  0 0 0 1 0"/>
			</filter>
		</defs>
		<mask maskUnits="userSpaceOnUse" x="113.1" y="371" width="24.9" height="21.5" id="mask-12_2_">
			<rect x="48.5" y="122.5" class="st18" width="1277" height="268"/>
			<g>
				<path id="path-11_4_" class="st12" d="M134.3,382.3l-1.7,1.6l-6.2,6.2c-0.2,0.2-0.5,0.3-0.9,0.3s-0.6-0.1-0.9-0.3l-7.9-7.7
					c-2.2-2.1-2.2-5.6,0-7.8s5.8-2.1,8,0l0.8,0.7l0.8-0.8c2.2-2.1,5.8-2.1,8,0C136.5,376.7,136.5,380.2,134.3,382.3z"/>
			</g>
		</mask>
		<g class="st25">
			<g>
				<path id="path-11_1_" class="st26" d="M134.3,382.3l-1.7,1.6l-6.2,6.2c-0.2,0.2-0.5,0.3-0.9,0.3s-0.6-0.1-0.9-0.3l-7.9-7.7
					c-2.2-2.1-2.2-5.6,0-7.8s5.8-2.1,8,0l0.8,0.7l0.8-0.8c2.2-2.1,5.8-2.1,8,0C136.5,376.7,136.5,380.2,134.3,382.3z"/>
			</g>
			<g>
				<path id="path-11_2_" class="st27" d="M134.3,382.3l-1.7,1.6l-6.2,6.2c-0.2,0.2-0.5,0.3-0.9,0.3s-0.6-0.1-0.9-0.3l-7.9-7.7
					c-2.2-2.1-2.2-5.6,0-7.8s5.8-2.1,8,0l0.8,0.7l0.8-0.8c2.2-2.1,5.8-2.1,8,0C136.5,376.7,136.5,380.2,134.3,382.3z"/>
			</g>
		</g>
		<defs>
			<filter id="Adobe_OpacityMaskFilter_3_" filterUnits="userSpaceOnUse" x="281.1" y="150" width="24.9" height="21.5">
				<feColorMatrix  type="matrix" values="1 0 0 0 0  0 1 0 0 0  0 0 1 0 0  0 0 0 1 0"/>
			</filter>
		</defs>
		<mask maskUnits="userSpaceOnUse" x="281.1" y="150" width="24.9" height="21.5" id="mask-14_2_">
			<rect x="48.5" y="122.5" class="st20" width="1277" height="268"/>
			<g>
				<path id="path-13_4_" class="st12" d="M302.3,161.3l-1.7,1.6l-6.2,6.2c-0.2,0.2-0.5,0.3-0.9,0.3s-0.6-0.1-0.9-0.3l-7.9-7.7
					c-2.2-2.1-2.2-5.6,0-7.8c2.2-2.1,5.8-2.1,8,0l0.8,0.7l0.8-0.8c2.2-2.1,5.8-2.1,8,0C304.5,155.7,304.5,159.2,302.3,161.3z"/>
			</g>
		</mask>
		<g class="st29">
			<g>
				<path id="path-13_1_" class="st14" d="M302.3,161.3l-1.7,1.6l-6.2,6.2c-0.2,0.2-0.5,0.3-0.9,0.3s-0.6-0.1-0.9-0.3l-7.9-7.7
					c-2.2-2.1-2.2-5.6,0-7.8c2.2-2.1,5.8-2.1,8,0l0.8,0.7l0.8-0.8c2.2-2.1,5.8-2.1,8,0C304.5,155.7,304.5,159.2,302.3,161.3z"/>
			</g>
			<g>
				<path id="path-13_2_" class="st15" d="M302.3,161.3l-1.7,1.6l-6.2,6.2c-0.2,0.2-0.5,0.3-0.9,0.3s-0.6-0.1-0.9-0.3l-7.9-7.7
					c-2.2-2.1-2.2-5.6,0-7.8c2.2-2.1,5.8-2.1,8,0l0.8,0.7l0.8-0.8c2.2-2.1,5.8-2.1,8,0C304.5,155.7,304.5,159.2,302.3,161.3z"/>
			</g>
		</g>
		<defs>
			<filter id="Adobe_OpacityMaskFilter_4_" filterUnits="userSpaceOnUse" x="267.3" y="306.2" width="31.5" height="27.3">
				<feColorMatrix  type="matrix" values="1 0 0 0 0  0 1 0 0 0  0 0 1 0 0  0 0 0 1 0"/>
			</filter>
		</defs>
		<mask maskUnits="userSpaceOnUse" x="267.3" y="306.2" width="31.5" height="27.3" id="mask-16_2_">
			<rect x="48.5" y="122.5" class="st22" width="1277" height="268"/>
			<g>
				<path id="path-15_4_" class="st12" d="M294.6,320.6l-2.2,2.2l-8.2,8.2c-0.3,0.3-0.7,0.4-1.1,0.4s-0.8-0.2-1.1-0.4l-10.4-10.3
					c-2.9-2.9-2.9-7.5,0-10.4s7.7-2.9,10.5,0l1,1l1.1-1.1c2.9-2.9,7.7-2.9,10.5,0C297.5,313.2,297.5,317.8,294.6,320.6z"/>
			</g>
		</mask>
		<g class="st31">
			<g>
				<path id="path-15_1_" class="st14" d="M294.6,320.6l-2.2,2.2l-8.2,8.2c-0.3,0.3-0.7,0.4-1.1,0.4s-0.8-0.2-1.1-0.4l-10.4-10.3
					c-2.9-2.9-2.9-7.5,0-10.4s7.7-2.9,10.5,0l1,1l1.1-1.1c2.9-2.9,7.7-2.9,10.5,0C297.5,313.2,297.5,317.8,294.6,320.6z"/>
			</g>
			<g>
				<path id="path-15_2_" class="st15" d="M294.6,320.6l-2.2,2.2l-8.2,8.2c-0.3,0.3-0.7,0.4-1.1,0.4s-0.8-0.2-1.1-0.4l-10.4-10.3
					c-2.9-2.9-2.9-7.5,0-10.4s7.7-2.9,10.5,0l1,1l1.1-1.1c2.9-2.9,7.7-2.9,10.5,0C297.5,313.2,297.5,317.8,294.6,320.6z"/>
			</g>
		</g>
		<defs>
			<filter id="Adobe_OpacityMaskFilter_5_" filterUnits="userSpaceOnUse" x="47.5" y="303.4" width="39.1" height="34.1">
				<feColorMatrix  type="matrix" values="1 0 0 0 0  0 1 0 0 0  0 0 1 0 0  0 0 0 1 0"/>
			</filter>
		</defs>
		<mask maskUnits="userSpaceOnUse" x="47.5" y="303.4" width="39.1" height="34.1" id="mask-22_2_">
			<rect x="48.5" y="122.5" class="st24" width="1277" height="268"/>
			<g>
				<path id="path-21_4_" class="st12" d="M81.8,321.5l-2.8,2.8l-10.5,10.6c-0.4,0.4-0.9,0.6-1.5,0.6c-0.6,0-1.1-0.2-1.5-0.6
					l-13.3-13.3c-3.7-3.7-3.7-9.7,0-13.4c3.7-3.7,9.8-3.7,13.4,0l1.3,1.3l1.4-1.4c3.7-3.7,9.8-3.7,13.4,0
					C85.5,311.8,85.5,317.9,81.8,321.5z"/>
			</g>
		</mask>
		<g class="st41">
			<g>
				<path id="path-21_1_" class="st38" d="M81.8,321.5l-2.8,2.8l-10.5,10.6c-0.4,0.4-0.9,0.6-1.5,0.6c-0.6,0-1.1-0.2-1.5-0.6
					l-13.3-13.3c-3.7-3.7-3.7-9.7,0-13.4c3.7-3.7,9.8-3.7,13.4,0l1.3,1.3l1.4-1.4c3.7-3.7,9.8-3.7,13.4,0
					C85.5,311.8,85.5,317.9,81.8,321.5z"/>
			</g>
			<g>
				<path id="path-21_2_" class="st39" d="M81.8,321.5l-2.8,2.8l-10.5,10.6c-0.4,0.4-0.9,0.6-1.5,0.6c-0.6,0-1.1-0.2-1.5-0.6
					l-13.3-13.3c-3.7-3.7-3.7-9.7,0-13.4c3.7-3.7,9.8-3.7,13.4,0l1.3,1.3l1.4-1.4c3.7-3.7,9.8-3.7,13.4,0
					C85.5,311.8,85.5,317.9,81.8,321.5z"/>
			</g>
		</g>
	</g>
</g>
</svg>
