<svg version="1.1" id="Ebene_1"
  xmlns="http://www.w3.org/2000/svg"
  xmlns:xlink="http://www.w3.org/1999/xlink" x="0px" y="0px" viewBox="0 0 22.4 20" style="enable-background:new 0 0 22.4 20;" xml:space="preserve">
  <style type="text/css">
	.st0{opacity:0;}
	.st1{fill-rule:evenodd;clip-rule:evenodd;}
	.st2{fill:#FF386E;}
  </style>
  <g>
    <g id="path-1_1_">
      <g class="st0">
        <path class="st1" d="M19.6,10.8L18,12.4l-6,6.2c-0.2,0.2-0.5,0.3-0.8,0.3s-0.6-0.1-0.8-0.3l-7.6-7.8C0.7,8.7,0.7,5.2,2.8,3
				s5.5-2.2,7.6,0l0.7,0.8L11.9,3c2.1-2.2,5.5-2.2,7.6,0C21.7,5.2,21.7,8.7,19.6,10.8z"/>
      </g>
      <g>
        <path class="st2" d="M11.2,20c-0.5,0-1-0.2-1.5-0.6l-0.1-0.1l-7.6-7.8c-2.5-2.5-2.5-6.7,0-9.2c1.2-1.2,2.8-1.9,4.5-1.9
				c0,0,0,0,0,0c1.7,0,3.3,0.7,4.5,1.9l0,0l0.1-0.1c1.2-1.2,2.9-1.9,4.6-1.9c1.7,0,3.3,0.7,4.5,1.9c2.5,2.5,2.5,6.7,0,9.2l-1.6,1.6
				l-6,6.2C12.3,19.8,11.8,20,11.2,20z M11.1,17.9c0.2,0.2,0.2,0.1,0.3,0l7.6-7.9c1.7-1.7,1.7-4.6,0-6.4c-0.8-0.9-1.9-1.3-3.1-1.3
				c0,0,0,0,0,0c-1.2,0-2.3,0.5-3.1,1.3l-1.5,1.5L9.7,3.7c-0.8-0.8-1.9-1.3-3-1.3c0,0,0,0,0,0c-1.2,0-2.3,0.5-3.1,1.3
				c-1.7,1.8-1.7,4.7,0,6.4L11.1,17.9z"/>
      </g>
    </g>
  </g>
</svg>
