<svg enable-background="new 0 0 20 20" viewBox="0 0 20 20" xmlns="http://www.w3.org/2000/svg" xmlns:xlink="http://www.w3.org/1999/xlink"><mask id="a" height="20" maskUnits="userSpaceOnUse" width="19.9" x="0" y="0"><path d="m0 0h20v20h-20z"/><path d="m0 0h20v20h-20z" fill="#fff"/></mask><g clip-rule="evenodd" fill="#20d2f4" fill-rule="evenodd" mask="url(#a)"><path d="m0 10c0 5.5 4.5 10 10 10s10-4.5 10-10c0-5.4-4.5-10-10-10s-10 4.5-10 10zm1.8 0c0-4.4 3.7-8.1 8.1-8.1 4.5 0 8.1 3.7 8.1 8.1s-3.7 8.1-8.1 8.1-8.1-3.7-8.1-8.1z"/><path d="m13.9 14.8c-.3 0-.5-.1-.6-.3l-4-4c-.2-.1-.3-.3-.3-.5v-5.9c0-.5.4-.9 1-.9s.9.4.9.9v5.4l3.7 3.7c.4.4.4.9 0 1.3-.2.2-.4.3-.7.3z"/></g></svg>