<?xml version="1.0" encoding="utf-8"?>
<!-- Generator: Adobe Illustrator 24.1.2, SVG Export Plug-In . SVG Version: 6.00 Build 0)  -->
<svg version="1.1" id="Ebene_1" xmlns="http://www.w3.org/2000/svg" xmlns:xlink="http://www.w3.org/1999/xlink" x="0px" y="0px" width="100px" height="100px"
	 viewBox="0 0 100 100" style="enable-background:new 0 0 100 100;" xml:space="preserve">
<style type="text/css">
	.st0{fill:#FFFFFF;}
	.st1{fill:#9C9B9B;}
</style>
<g>
	<path class="st0" d="M89.4,78.7h1.5v-4.1l1.9-2.4l4.9,6.4h1.9l-5.9-7.6l5.9-7.2h-1.9L91,72.4h0v-8.5h-1.5V78.7z M77.6,78.7h1.5
		V65.2h2.6c1.2,0,2,0.1,2.9,0.6c1,0.5,1.6,1.7,1.6,2.8c0,1.3-0.8,2.7-2.4,3.1C83.1,72,82.4,72,80.6,72l5,6.7h1.9l-4.2-5.5
		c2.9-0.2,4.4-2.4,4.4-4.5c0-1.8-1-3.4-2.6-4.2c-0.7-0.3-1.7-0.6-3.6-0.6h-3.8V78.7z M67.7,78.7h8.1v-1.3h-6.6v-5.5h6.4v-1.3h-6.4
		v-5.3h6.6v-1.3h-8.1V78.7z M51.7,78.7h1.9l3.2-12.1h0l3.3,12.1H62l4.2-14.8h-1.5l-3.6,12.9h0l-3.5-12.9h-1.4l-3.5,12.9h0L49,63.9
		h-1.5L51.7,78.7z"/>
	<path class="st0" d="M37.3,63.9v0.5h4v14.3H42V64.4h4v-0.5H37.3z M28.5,75c0.2,2.8,2.5,4,4.3,4c2.2,0,4.3-1.7,4.3-4.1
		c0-3.2-3-3.8-3.7-4c-2-0.5-4-1.1-4-3.4c0-1.9,1.5-3.2,3.4-3.2c2.4,0,3,1.7,3.3,2.9h0.6c-0.3-2.4-2.1-3.4-3.8-3.4
		c-2.1,0-4.1,1.4-4,3.9c0,2.8,2.6,3.4,3.9,3.7c1.4,0.4,3.8,0.9,3.8,3.7c0,2.1-1.9,3.5-3.7,3.5c-1.1,0-3.3-0.6-3.7-3.5H28.5z
		 M19.1,63.9v14.8h8.1v-0.5h-7.5v-6.6h7.5V71h-7.5v-6.5h7.5v-0.5H19.1z M1,63.9H0.3l4.2,14.8h0.8l3.6-13.2h0l3.6,13.2h0.8l4.2-14.8
		H17l-4,14h0l-3.8-14H8.8L5,77.9h0L1,63.9z"/>
</g>
<g>
	<path class="st0" d="M64.4,55H40.5c-0.8,0-1.4-0.6-1.4-1.4v0c0-0.8,0.6-1.4,1.4-1.4h23.9c0.8,0,1.4,0.6,1.4,1.4v0
		C65.8,54.4,65.2,55,64.4,55"/>
	<path class="st0" d="M47.1,21.9L34.3,49.3c-0.3,0.7,0,1.5,0.7,1.9l0,0c0.7,0.3,1.5,0,1.9-0.7l12.8-27.4c0.3-0.7,0-1.5-0.7-1.9l0,0
		C48.3,20.8,47.4,21.1,47.1,21.9"/>
</g>
</svg>
