<svg viewBox="0 0 260 415" xmlns="http://www.w3.org/2000/svg" xmlns:xlink="http://www.w3.org/1999/xlink"><mask id="a" height="268" maskUnits="userSpaceOnUse" width="1277" x="64.29" y="133.13"><path d="m64.29 133.13h1277v268h-1277z"/><path d="m132.37 161.65-3.75 3.72-13.9 14a2.61 2.61 0 0 1 -1.93.74 3.13 3.13 0 0 1 -1.93-.74l-17.65-17.51a12.55 12.55 0 0 1 17.79-17.73l1.71 1.69 1.82-1.8a12.58 12.58 0 0 1 17.76 0 12.28 12.28 0 0 1 .08 17.63z" fill="#fff" fill-rule="evenodd"/></mask><mask id="b" height="268" maskUnits="userSpaceOnUse" width="1277" x="132.1" y="81.91"><path d="m132.1 81.91h1277v268h-1277z"/><path d="m217.89 341.79-1.68 1.64-6.21 6.15a1.18 1.18 0 0 1 -.86.33 1.37 1.37 0 0 1 -.86-.33l-7.93-7.69a5.41 5.41 0 0 1 0-7.79 5.73 5.73 0 0 1 8 0l.77.75.82-.8a5.75 5.75 0 0 1 8 0 5.31 5.31 0 0 1 -.05 7.74z" fill="#fff" fill-rule="evenodd"/></mask><mask id="c" height="268" maskUnits="userSpaceOnUse" width="1277" x="42.97" y="89.86"><path d="m42.97 89.86h1277v268h-1277z"/><path d="m76.25 288.89-2.82 2.81-10.51 10.6a1.94 1.94 0 0 1 -1.45.56 2.31 2.31 0 0 1 -1.47-.56l-13.31-13.25a9.49 9.49 0 0 1 13.41-13.42l1.29 1.29 1.37-1.37a9.51 9.51 0 0 1 13.41 0 9.3 9.3 0 0 1 .08 13.34z" fill="#fff" fill-rule="evenodd"/></mask><g mask="url(#a)"><path d="m132.37 161.65-3.75 3.72-13.9 14a2.61 2.61 0 0 1 -1.93.74 3.13 3.13 0 0 1 -1.93-.74l-17.65-17.51a12.55 12.55 0 0 1 17.79-17.73l1.71 1.69 1.82-1.8a12.58 12.58 0 0 1 17.76 0 12.28 12.28 0 0 1 .08 17.63z" fill="#2c2f3b" fill-rule="evenodd"/></g><g mask="url(#b)"><path d="m217.89 341.79-1.68 1.64-6.21 6.15a1.18 1.18 0 0 1 -.86.33 1.37 1.37 0 0 1 -.86-.33l-7.93-7.69a5.41 5.41 0 0 1 0-7.79 5.73 5.73 0 0 1 8 0l.77.75.82-.8a5.75 5.75 0 0 1 8 0 5.31 5.31 0 0 1 -.05 7.74z" fill="#6c49e5" fill-rule="evenodd"/></g><g mask="url(#c)"><path d="m61.47 302.86a2.31 2.31 0 0 1 -1.47-.56l-13.31-13.25a9.49 9.49 0 0 1 13.41-13.42l1.29 1.29 1.37-1.37a9.51 9.51 0 0 1 13.41 0 9.3 9.3 0 0 1 .08 13.34l-2.82 2.81" fill="#ff386e" fill-rule="evenodd"/></g><g fill-rule="evenodd"><path d="m199.43 82a2.57 2.57 0 0 1 2.57-2.61h14.08a2.57 2.57 0 0 1 2.55 2.61v14a2.56 2.56 0 0 1 -2.56 2.56h-14.07a2.56 2.56 0 0 1 -2.57-2.56zm21.76 9.21v-5.67l5.89-2.3a1.38 1.38 0 0 1 1.79 1.28v7.68a1.26 1.26 0 0 1 -1.79 1.15z" fill="#69ff47"/><path d="m84.09 386a11.07 11.07 0 1 1 11.07-11 11.1 11.1 0 0 1 -11.07 11zm0-20.06a9.06 9.06 0 0 0 -9 9 9 9 0 1 0 9-9zm3.73 14a1 1 0 0 0 1.39 0 .94.94 0 0 0 0-1.39l-4.15-4v-6.09a1 1 0 0 0 -1.94 0v6.54a1.06 1.06 0 0 0 .28.69z" fill="#2c2f3b"/><path d="m166.91 260.73a17.12 17.12 0 0 0 16.87 17.27c9.3 0 16.87-8 16.87-17.3s-7.78-17.3-16.87-17.3a17.13 17.13 0 0 0 -16.87 17.33zm3 0c0-7.57 6.27-14.06 13.63-14.06a13.8 13.8 0 0 1 13.62 14.06c0 7.57-6.27 14.06-13.62 14.06s-13.6-6.49-13.6-14.06z" fill="#2c2f3b"/><path d="m179.24 256v9.3a1.52 1.52 0 0 0 2.38 1.3l8.22-5a1.62 1.62 0 0 0 0-2.81l-8.22-4.32a1.77 1.77 0 0 0 -2.38 1.53z" fill="#2c2f3b"/></g></svg>