<?xml version="1.0" encoding="utf-8"?>
<!-- Generator: Adobe Illustrator 24.3.0, SVG Export Plug-In . SVG Version: 6.00 Build 0)  -->
<svg version="1.1" id="Ebene_1" xmlns="http://www.w3.org/2000/svg" xmlns:xlink="http://www.w3.org/1999/xlink" x="0px" y="0px"
	 viewBox="0 0 2018 378" style="enable-background:new 0 0 2018 378;" xml:space="preserve">
<style type="text/css">
	.st0{fill-rule:evenodd;clip-rule:evenodd;fill:#FFFFFF;}
	.st1{fill-rule:evenodd;clip-rule:evenodd;fill:#DC0073;}
	.st2{fill:#FFFFFF;}
	.st3{fill-rule:evenodd;clip-rule:evenodd;fill:#173D1E;}
	.st4{fill-rule:evenodd;clip-rule:evenodd;fill:#FF0096;}
	.st5{fill-rule:evenodd;clip-rule:evenodd;fill:#AAFFE5;}
	.st6{fill-rule:evenodd;clip-rule:evenodd;fill:#49B637;}
	.st7{fill-rule:evenodd;clip-rule:evenodd;fill:#AB92BF;}
	.st8{fill-rule:evenodd;clip-rule:evenodd;fill:#173753;}
	.st9{fill-rule:evenodd;clip-rule:evenodd;fill:#20D2F4;}
	.st10{fill-rule:evenodd;clip-rule:evenodd;fill:#69FF47;}
	.st11{fill-rule:evenodd;clip-rule:evenodd;fill:#8C1A6A;}
	.st12{fill-rule:evenodd;clip-rule:evenodd;fill:#494947;}
	.st13{fill-rule:evenodd;clip-rule:evenodd;fill:#231651;}
	.st14{fill-rule:evenodd;clip-rule:evenodd;fill:#00FF00;}
	.st15{fill-rule:evenodd;clip-rule:evenodd;fill:#E4FF1A;}
</style>
<g id="Logo-white">
	<g id="talentine-logo" transform="translate(182.000000, 199.000000)">
		<g id="wortmarke" transform="translate(487.000000, 76.000000)">
			<g id="text">
				<path id="Shape" class="st0" d="M67.9-118.1H28v18.1C14.8-120.9-6.2-122.9-17-122.9c-41.2,0-69.6,33.5-69.6,75.5
					c0,41.7,28.4,75.8,71.6,75.8c10.1,0,29.1-2.4,43.3-22.9v18.4h39.5V-118.1z M-6.8-7.1c-22.6,0-38.9-17.8-38.9-40.3
					c0-22.5,16.2-39.9,38.9-39.9C15.8-87.4,32-70,32-47.4C32-24.9,15.8-7.1-6.8-7.1z"/>
				<polygon id="Path" class="st0" points="144.9,-166.6 144.9,23.9 105.4,23.9 105.4,-166.6 				"/>
				<path id="Shape_1_" class="st0" d="M251.4,28.7c48.7,0,64.9-33.8,68.9-44.4l-36.2-6.1c-6.4,11.6-17.9,18.8-32.8,18.8
					c-15.5,0-24.3-7.5-28.4-13.3c-4.4-6.1-6.8-15.4-6.8-23.9h105.1v-3.4c0-15.4-2-37.6-16.9-55.7c-9.8-11.6-26.4-23.2-54.8-23.2
					c-16.6,0-36.2,3.8-52.7,20.1c-9.8,10.2-21.3,27.3-21.3,55.7c0,22.2,6.4,40.6,22,55.3C211.5,22.2,228.7,28.7,251.4,28.7z
					 M250.7-94.6c14.5,0,30.1,9.2,33.5,28.7h-66.6C221-85,236.2-94.6,250.7-94.6z"/>
				<path id="Path_1_" class="st0" d="M352.4-118.1h39.2v18.4c7.4-10.6,20.6-22.9,43.6-22.9c12.2,0,30.4,3.8,41.6,17.4
					c9.8,12.3,11.2,26.3,11.2,39.9v89.1h-39.5v-77.5c0-7.9-0.3-20.5-7.4-28c-6.1-6.5-14.5-7.2-18.6-7.2c-10.5,0-18.6,3.8-24.3,12.3
					c-5.7,9.2-6.1,19.5-6.1,27.7v72.4h-39.5V-118.1z"/>
				<polygon id="Path_2_" class="st0" points="652.5,-118.1 652.5,23.9 613,23.9 613,-118.1 				"/>
				<path id="Path_3_" class="st0" d="M690.4-118.1h39.2v18.4c7.4-10.6,20.6-22.9,43.6-22.9c12.2,0,30.4,3.8,41.6,17.4
					c9.8,12.3,11.2,26.3,11.2,39.9v89.1h-39.5v-77.5c0-7.9-0.3-20.5-7.4-28c-6.1-6.5-14.5-7.2-18.6-7.2c-10.5,0-18.6,3.8-24.3,12.3
					c-5.7,9.2-6.1,19.5-6.1,27.7v72.4h-39.5V-118.1z"/>
				<path id="Shape_2_" class="st0" d="M932,28.7c48.7,0,64.9-33.8,68.9-44.4l-36.2-6.1C958.4-10.2,946.9-3.1,932-3.1
					c-15.5,0-24.3-7.5-28.4-13.3c-4.4-6.1-6.8-15.4-6.8-23.9H1002v-3.4c0-15.4-2-37.6-16.9-55.7c-9.8-11.6-26.4-23.2-54.8-23.2
					c-16.6,0-36.2,3.8-52.7,20.1c-9.8,10.2-21.3,27.3-21.3,55.7c0,22.2,6.4,40.6,22,55.3C892.2,22.2,909.4,28.7,932,28.7z
					 M931.4-94.6c14.5,0,30.1,9.2,33.5,28.7h-66.6C901.6-85,916.8-94.6,931.4-94.6z"/>
				<polygon id="Path_4_" class="st0" points="-127,-118.5 -127,-167.2 -166.5,-198 -166.5,-136.3 -166.5,-118.5 -182,-118.5
					-182,-84.3 -166.5,-84.3 -166.5,24 -127,24 -127,-84.3 -100,-84.3 -100,-118.5 				"/>
				<polygon id="Path_5_" class="st0" points="565.8,-118.5 565.8,-167.2 565.8,-167.2 565.8,-167.2 526.5,-198 526.5,-136.3
					526.5,-118.5 511,-118.5 511,-84.3 526.5,-84.3 526.5,24 565.8,24 565.8,-84.3 593,-84.3 593,-118.5 				"/>
			</g>
			<polygon id="Path_6_" class="st1" points="652,-136 652,-198 612,-167 			"/>
			<polygon id="Path-Copy" class="st0" points="1156,-136 1156,-198 1116,-167 			"/>
			<path id="Combined-Shape" class="st2" d="M1268.4-121.3c26.7,0,44.8,8.8,56.9,19.8c14,12.7,23.7,32.2,23.7,55.3
				c0,22.8-9.8,42.2-23.7,54.9c-12,11.1-30.2,19.8-56.9,19.8s-44.8-8.8-56.9-19.8c-14-12.7-23.7-32.2-23.7-54.9
				c0-23.1,9.8-42.6,23.7-55.3C1223.6-112.6,1241.8-121.3,1268.4-121.3z M1268.4-86.2c-22.8,0-39.7,17.9-39.7,40
				c0,21.4,16.6,39.6,39.7,39.6c23.1,0,39.7-18.2,39.7-39.6C1308.1-68.4,1291.2-86.2,1268.4-86.2z"/>
			<path id="Path_7_" class="st2" d="M1057.8,28.1c14.3,0,25.3-11,25.3-25.3s-11.1-25.4-25.3-25.4c-14.3,0-25.4,11.1-25.4,25.4
				S1043.5,28.1,1057.8,28.1z"/>
			<polygon id="Path_8_" class="st2" points="1157.2,23.9 1157.2,-116.8 1117.6,-116.8 1117.6,23.9 			"/>
		</g>
		<g id="bildmarke">
			<polygon id="Path_9_" class="st3" points="-182,-122.6 -182,28.2 -84.7,-47.2 			"/>
			<polygon id="Path_10_" class="st4" points="-84.7,-47.2 -84.7,-198 -182,-122.6 			"/>
			<polygon id="Path_11_" class="st5" points="-84.7,103.6 -84.7,-47.2 -182,28.2 			"/>
			<polygon id="Path_12_" class="st1" points="-84.7,-198 -84.7,-47.2 12.6,-122.6 			"/>
			<polygon id="Path_13_" class="st6" points="-84.7,-47.2 -84.7,103.6 12.6,28.2 			"/>
			<polygon id="Path_14_" class="st7" points="12.6,-122.6 12.6,28.2 110.2,-47.2 			"/>
			<polygon id="Path_15_" class="st8" points="12.6,28.2 12.6,179 110.2,103.6 			"/>
			<polygon id="Path_16_" class="st9" points="110.2,-47.2 110.2,103.6 207.5,28.2 			"/>
			<polygon id="Path_17_" class="st10" points="110.2,-198 110.2,-47.2 207.5,-122.6 			"/>
			<polygon id="Path_18_" class="st11" points="12.6,28.2 12.6,-122.6 -84.7,-47.2 			"/>
			<polygon id="Path_19_" class="st12" points="110.2,-47.2 110.2,-198 12.6,-122.6 			"/>
			<polygon id="Path_20_" class="st13" points="110.2,103.6 110.2,-47.2 12.6,28.2 			"/>
			<polygon id="Path_21_" class="st14" points="12.6,179 12.6,28.2 -84.7,103.6 			"/>
			<polygon id="Path_22_" class="st15" points="207.5,28.2 207.5,-122.6 110.2,-47.2 			"/>
		</g>
	</g>
</g>
</svg>
