<?xml version="1.0" encoding="utf-8"?>
<!-- Generator: Adobe Illustrator 24.3.0, SVG Export Plug-In . SVG Version: 6.00 Build 0)  -->
<svg version="1.1" id="Ebene_1" xmlns="http://www.w3.org/2000/svg" xmlns:xlink="http://www.w3.org/1999/xlink" x="0px" y="0px"
	 viewBox="0 0 40.3 40.3" style="enable-background:new 0 0 40.3 40.3;" xml:space="preserve">
<style type="text/css">
	.st0{fill:none;stroke:#FFFFFF;stroke-width:4;stroke-linecap:round;stroke-linejoin:round;stroke-miterlimit:10;}
	.st1{fill:#FFFFFF;}
	.st2{fill:#E71C84;}
	.st3{fill:none;stroke:#E71C84;stroke-width:4;stroke-linecap:round;stroke-linejoin:round;stroke-miterlimit:10;}
</style>
<g>
	<g>
		<path class="st2" d="M26,17.1c-3.7,0-6.8-3-6.8-6.8c0-3.7,3-6.8,6.8-6.8s6.8,3,6.8,6.8C32.8,14,29.7,17.1,26,17.1z"/>
	</g>
	<g>
		<path class="st2" d="M29.1,36.8h-5.9c-1.6,0-3-0.6-4.1-1.8c-0.9-1-1.3-2.4-1.2-3.7l0.5-4.4c0.1-3.9,3.5-7.1,7.7-7.1
			c4.2,0,7.6,3.2,7.7,7.1l0.5,4.4c0.2,1.3-0.3,2.7-1.2,3.7C32.1,36.1,30.6,36.8,29.1,36.8z M19.9,27L19.9,27L19.9,27z"/>
	</g>
	<path class="st2" d="M14.1,3.5c-3.7,0-6.8,3-6.8,6.8c0,3.7,3,6.8,6.8,6.8c0.8,0,1.5-0.7,1.5-1.5V5C15.6,4.2,14.9,3.5,14.1,3.5z"/>
	<path class="st2" d="M14.2,19.9c-4.2,0-7.6,3.2-7.7,7.1L6,31.3C5.8,32.6,6.2,34,7.2,35c1,1.1,2.5,1.8,4.1,1.8h1.9
		c0.8,0,1.5-0.7,1.5-1.5l1.1-13.9C15.7,20.5,15,19.9,14.2,19.9z"/>
</g>
</svg>
