<?xml version="1.0" encoding="utf-8"?>
<!-- Generator: Adobe Illustrator 24.3.0, SVG Export Plug-In . SVG Version: 6.00 Build 0)  -->
<svg version="1.1" id="Ebene_1" xmlns="http://www.w3.org/2000/svg" xmlns:xlink="http://www.w3.org/1999/xlink" x="0px" y="0px"
	 viewBox="0 0 48 48" style="enable-background:new 0 0 48 48;" xml:space="preserve">
<style type="text/css">
	.st0{fill:none;stroke:#FF0096;stroke-width:2;stroke-linecap:round;stroke-linejoin:round;stroke-miterlimit:10;}
</style>
<g>
	<path class="st0" d="M35.8,44.2c-5.7,0-7.7-4-7.7-4H20c0,0-1.4,4-7.7,4S1.9,39.6,1.9,33.9v0c0-5.7,4.6-10.4,10.4-10.4h23.5
		c5.7,0,10.4,4.6,10.4,10.4v0C46.1,39.6,41.5,44.2,35.8,44.2z"/>
	<polygon class="st0" points="17.3,31.9 13.4,31.9 13.4,28.1 9.6,28.1 9.6,31.9 5.7,31.9 5.7,35.8 9.6,35.8 9.6,39.6 13.4,39.6 
		13.4,35.8 17.3,35.8 	"/>
	<g>
		<circle class="st0" cx="33.2" cy="37.2" r="1.9"/>
		<circle class="st0" cx="39" cy="31.4" r="1.9"/>
	</g>
	<line class="st0" x1="22.5" y1="35.1" x2="25.4" y2="35.1"/>
</g>
<path class="st0" d="M23.8,23.2v-2.7c0-1.5,1.2-2.7,2.7-2.7h7.2c1.2,0,2.1-0.9,2.1-2.1v0c0-1.2-0.9-2.1-2.1-2.1H10.7
	c-1.5,0-2.8-1.3-2.8-2.8v0c0-1.5,1.3-2.8,2.8-2.8h18.8V1.8"/>
</svg>
