<?xml version="1.0" encoding="utf-8"?>
<!-- Generator: Adobe Illustrator 24.1.3, SVG Export Plug-In . SVG Version: 6.00 Build 0)  -->
<svg version="1.1" id="Ebene_1" xmlns="http://www.w3.org/2000/svg" xmlns:xlink="http://www.w3.org/1999/xlink" x="0px" y="0px"
	 viewBox="0 0 75 75" style="enable-background:new 0 0 75 75;" xml:space="preserve">
<style type="text/css">
	.st0{fill-rule:evenodd;clip-rule:evenodd;fill:#171522;}
</style>
<g>
	<path class="st0" d="M37.5,0C16.8,0,0,16.8,0,37.5S16.8,75,37.5,75S75,58.2,75,37.5S58.2,0,37.5,0z M37.5,71.1
		c-18.6,0-33.6-15-33.6-33.6s15-33.6,33.6-33.6c18.5,0,33.6,15,33.6,33.6S56.1,71.1,37.5,71.1z"/>
	<path class="st0" d="M52,35.7L29.8,23.4c-0.6-0.3-1.3-0.3-2,0c-0.6,0.4-1,1-1,1.7v24.7c0,0.7,0.4,1.4,1,1.7
		c0.2,0.2,0.6,0.2,0.9,0.2s0.7-0.1,1-0.2L52,39c0.5-0.3,0.9-1,0.9-1.6C53,36.7,52.7,36.1,52,35.7z"/>
</g>
</svg>
