<svg version="1.1" id="Ebene_1"
  xmlns="http://www.w3.org/2000/svg"
  xmlns:xlink="http://www.w3.org/1999/xlink" x="0px" y="0px" viewBox="0 0 8.4 15.9" style="enable-background:new 0 0 8.4 15.9;" xml:space="preserve">
  <style type="text/css">
	.st0{opacity:0;}
	.st1{fill-rule:evenodd;clip-rule:evenodd;}
	.st2{fill:#DDDEE1;}
  </style>
  <g>
    <g class="st0">
      <path class="st1" d="M7.4,14.9L7.4,14.9l-1.3-1.3l-4.8-5C1.1,8.4,1,8.2,1,7.9c0-0.3,0.1-0.5,0.3-0.7l6-6.2"/>
    </g>
    <g>
      <path class="st2" d="M7.3,15.9c-0.3,0-0.5-0.1-0.7-0.3l-1.3-1.3l-4.9-5C0.2,9.1,0,8.6,0,8c0-0.4,0.2-0.9,0.5-1.3l6.1-6.3
			c0.4-0.4,1-0.4,1.4,0c0.4,0.4,0.4,1,0,1.4L2,8v0.1l6,6.1c0.4,0.4,0.4,1,0,1.4C7.8,15.8,7.6,15.9,7.3,15.9z"/>
    </g>
  </g>
</svg>
