<?xml version="1.0" encoding="utf-8"?>
<!-- Generator: Adobe Illustrator 24.3.0, SVG Export Plug-In . SVG Version: 6.00 Build 0)  -->
<svg version="1.1" id="Ebene_1" xmlns="http://www.w3.org/2000/svg" xmlns:xlink="http://www.w3.org/1999/xlink" x="0px" y="0px"
	 viewBox="0 0 40.3 40.3" style="enable-background:new 0 0 40.3 40.3;" xml:space="preserve">
<style type="text/css">
	.st0{fill:none;stroke:#FFFFFF;stroke-width:4;stroke-linecap:round;stroke-linejoin:round;stroke-miterlimit:10;}
	.st1{fill:#FFFFFF;}
	.st2{fill:#E71C84;}
	.st3{fill:none;stroke:#E71C84;stroke-width:4;stroke-linecap:round;stroke-linejoin:round;stroke-miterlimit:10;}
</style>
<g>
	<path class="st2" d="M33.6,6.3h-3.9V3.5c0-0.8-0.7-1.5-1.5-1.5s-1.5,0.7-1.5,1.5v2.8H13.5V3.5C13.5,2.6,12.8,2,12,2
		s-1.5,0.7-1.5,1.5v2.8H6.6c-2.3,0-4.1,1.9-4.1,4.1v20.8c0,2.3,1.9,4.1,4.1,4.1h27c2.3,0,4.1-1.9,4.1-4.1V10.4
		C37.8,8.1,35.9,6.3,33.6,6.3z M6.6,9.3h3.9v1.5c0,0.8,0.7,1.5,1.5,1.5s1.5-0.7,1.5-1.5V9.3h13.3v1.5c0,0.8,0.7,1.5,1.5,1.5
		s1.5-0.7,1.5-1.5V9.3h3.9c0.6,0,1.1,0.5,1.1,1.1v6.2H5.5v-6.2C5.5,9.8,6,9.3,6.6,9.3z M33.6,32.4h-27c-0.6,0-1.1-0.5-1.1-1.1V19.6
		h29.3v11.6C34.8,31.9,34.3,32.4,33.6,32.4z"/>
</g>
</svg>
