<?xml version="1.0" encoding="utf-8"?>
<!-- Generator: Adobe Illustrator 24.3.0, SVG Export Plug-In . SVG Version: 6.00 Build 0)  -->
<svg version="1.1" id="Ebene_1" xmlns="http://www.w3.org/2000/svg" xmlns:xlink="http://www.w3.org/1999/xlink" x="0px" y="0px"
	 viewBox="0 0 48 48" style="enable-background:new 0 0 48 48;" xml:space="preserve">
<style type="text/css">
	.st0{fill:none;stroke:#FF0096;stroke-width:2;stroke-linecap:round;stroke-linejoin:round;stroke-miterlimit:10;}
</style>
<circle class="st0" cx="24" cy="22" r="14"/>
<line class="st0" x1="20" y1="40" x2="20" y2="36"/>
<line class="st0" x1="28" y1="36" x2="28" y2="40"/>
<line class="st0" x1="28" y1="40" x2="24" y2="40"/>
<line class="st0" x1="22" y1="22" x2="22" y2="35.2"/>
<line class="st0" x1="26" y1="35" x2="26" y2="22"/>
<path class="st0" d="M20,20L20,20c-1.1,0-2,0.9-2,2v0c0,1.1,0.9,2,2,2h0c1.1,0,2-0.9,2-2v0C22,20.9,21.2,20,20,20z"/>
<path class="st0" d="M28,20L28,20c-1.1,0-2,0.9-2,2v0c0,1.1,0.9,2,2,2h0c1.1,0,2-0.9,2-2v0C30,20.9,29.2,20,28,20z"/>
<line class="st0" x1="28" y1="24" x2="20" y2="24"/>
<path class="st0" d="M28,40v2c0,1.1-0.9,2-2,2h-4c-1.1,0-2-0.9-2-2v-2"/>
<line class="st0" x1="24.1" y1="2" x2="24.1" y2="4"/>
<line class="st0" x1="8.1" y1="6" x2="11.3" y2="9.3"/>
<line class="st0" x1="4" y1="20" x2="6" y2="22"/>
<line class="st0" x1="44" y1="22" x2="42" y2="22"/>
<line class="st0" x1="40.1" y1="6" x2="36.8" y2="9.3"/>
</svg>
